<?xml version="1.0" encoding="utf-8"?>
<!-- Generator: Adobe Illustrator 25.2.1, SVG Export Plug-In . SVG Version: 6.00 Build 0)  -->
<svg version="1.1" id="Layer_1" xmlns="http://www.w3.org/2000/svg" xmlns:xlink="http://www.w3.org/1999/xlink" x="0px" y="0px" width="24" height="21"
	 viewBox="0 0 24 21" style="enable-background:new 0 0 24 21;" xml:space="preserve">
<style type="text/css">
	.st0{fill:#3EA190;}
</style>
<g>
	<path class="st0" d="M14.7,15.6c0.2,0.5,0.3,1.1,0.5,1.6c0.1,0.4,0,0.6-0.4,0.6c-2.7,0-5.4,0-8,0c-0.1,0-0.2,0-0.2,0
		c-0.2,0-0.3,0.2-0.3,0.4c0,0.2,0.1,0.3,0.3,0.4c0.1,0,0.2,0,0.2,0c2.7,0,5.3,0,8,0c0.1,0,0.2,0,0.2,0c0.2,0,0.3,0.2,0.3,0.4
		c0,0.2-0.1,0.3-0.3,0.4c0,0-0.1,0-0.1,0c-2.8,0-5.5,0-8.3,0c-0.5,0-0.9-0.3-1-0.7c-0.1-0.4,0-0.9,0.3-1.2C6.1,17.1,6.3,17,6.6,17
		c0.7,0,1.4,0,2.1,0c0.1,0,0.2,0,0.2-0.2c0.1-0.4,0.3-0.8,0.4-1.3c-0.1,0-0.2,0-0.3,0c-2,0-4,0-6.1,0c-0.7,0-1.2-0.4-1.2-1.2
		c0-4.3,0-8.6,0-12.9c0-0.7,0.4-1.2,1.2-1.2c6,0,12,0,18,0c0.7,0,1.2,0.4,1.2,1.2c0,1.5,0,3.1,0,4.6c0,0.2,0,0.3-0.2,0.4
		c-0.1,0-0.3,0-0.4-0.1c-0.1-0.1-0.1-0.2-0.1-0.4c0-1.5,0-2.9,0-4.4c0-0.4-0.1-0.5-0.5-0.5c-5.9,0-11.9,0-17.8,0
		c-0.4,0-0.5,0.1-0.5,0.5c0,3.6,0,7.2,0,10.8c0,0.1,0,0.2,0,0.3c0.1,0,0.2,0,0.3,0c3.5,0,6.9,0,10.4,0c0.1,0,0.1,0,0.2,0
		c0.3,0,0.5,0.1,0.5,0.4s-0.2,0.4-0.5,0.4c-3.5,0-7,0-10.5,0c-0.1,0-0.2,0-0.3,0c0,0.4,0,0.8,0,1.2c0,0.1,0.2,0.2,0.3,0.3
		c0.1,0,0.1,0,0.2,0c3.9,0,7.7,0,11.6,0c0.1,0,0.2,0,0.2,0c0.2,0,0.4,0.2,0.3,0.4c0,0.2-0.1,0.3-0.4,0.3
		C14.9,15.6,14.8,15.6,14.7,15.6z M14.4,17c-0.1-0.5-0.3-0.9-0.4-1.4c0,0-0.1-0.1-0.2-0.1c-1.2,0-2.4,0-3.6,0c-0.1,0-0.1,0-0.2,0.1
		c-0.2,0.4-0.3,0.9-0.5,1.4C11.2,17,12.8,17,14.4,17z"/>
	<path class="st0" d="M16,17.7c0-0.6,0-1.2,0-1.7c0-0.5,0.2-0.8,0.6-1c0.1,0,0.1-0.1,0.1-0.2c0-0.2,0.1-0.5,0-0.7
		c-0.1-0.2-0.4-0.2-0.6-0.3c-1.7-0.7-2.7-2.4-2.6-4.2c0.1-2.1,1.7-3.9,3.8-4.1c2.8-0.3,5.1,1.9,4.9,4.6c-0.1,1.7-1.3,3.3-3,3.8
		c-0.2,0.1-0.3,0.2-0.3,0.4c0,0.1,0,0.1,0,0.2c0,0.3,0,0.5,0.3,0.7c0.3,0.2,0.4,0.5,0.4,0.9c0,1.2,0,2.4,0,3.6
		c0,0.6-0.5,1.1-1.1,1.1c-0.5,0-1,0-1.5,0c-0.6,0-1.1-0.5-1.1-1.1C16,18.9,16,18.3,16,17.7z M17.8,13.4c2,0,3.6-1.6,3.6-3.6
		c0-2-1.6-3.6-3.6-3.6c-2,0-3.6,1.7-3.6,3.7C14.2,11.8,15.8,13.4,17.8,13.4z M16.7,17.7c0,0.6,0,1.2,0,1.8c0,0.3,0.1,0.4,0.4,0.4
		c0.4,0,0.9,0,1.3,0c0.3,0,0.4-0.1,0.4-0.4c0-1.2,0-2.3,0-3.5c0-0.3-0.1-0.4-0.4-0.4c-0.4,0-0.9,0-1.3,0c-0.3,0-0.4,0.1-0.4,0.4
		C16.7,16.6,16.7,17.1,16.7,17.7z M18.2,14.1c-0.2,0-0.5,0-0.7,0c0,0.2,0,0.5,0,0.7c0.2,0,0.5,0,0.7,0
		C18.2,14.6,18.2,14.4,18.2,14.1z"/>
	<path class="st0" d="M8.7,8.2c1.3-1.3,2.6-2.6,3.8-3.8c-0.3,0-0.5,0-0.8,0c-0.3,0-0.5-0.1-0.5-0.4c0-0.2,0.2-0.4,0.5-0.4
		c0.5,0,1.1,0,1.6,0c0.3,0,0.4,0.1,0.4,0.4c0,0.6,0,1.1,0,1.7c0,0.3-0.1,0.4-0.4,0.4c-0.2,0-0.4-0.2-0.4-0.4c0-0.3,0-0.5,0-0.9
		C13,4.9,12.9,5,12.9,5c-1.3,1.3-2.5,2.5-3.8,3.8c-0.3,0.3-0.4,0.3-0.8,0C7.9,8.5,7.4,8.1,7,7.7C6.7,8,6.5,8.3,6.2,8.6
		C5.6,9.3,5,10,4.3,10.7c-0.1,0.1-0.3,0.2-0.4,0.2c-0.1,0-0.2-0.1-0.3-0.2c0-0.1,0-0.3,0.1-0.4C4.5,9.4,5.3,8.5,6,7.7
		c0.2-0.2,0.4-0.4,0.6-0.6C6.8,6.8,7,6.8,7.2,7C7.7,7.4,8.2,7.8,8.7,8.2z"/>
	<path class="st0" d="M22.2,14c0,0.3,0,0.5-0.1,0.8c-0.1,0.5-0.5,0.8-1,0.8c-0.1,0-0.3,0-0.4,0c-0.2,0-0.3-0.1-0.3-0.3
		c0-0.2,0.1-0.4,0.3-0.4c0.1,0,0.3,0,0.4,0c0.2,0,0.4-0.1,0.4-0.4c0-0.3,0-0.7,0-1c0-0.3,0.1-0.4,0.4-0.4c0.2,0,0.4,0.2,0.4,0.4
		C22.1,13.6,22.1,13.8,22.2,14C22.2,14,22.2,14,22.2,14z"/>
	<path class="st0" d="M20.7,9.9c0,1.5-1.4,2.8-2.8,2.8c-0.3,0-0.4-0.1-0.4-0.4c0-0.2,0.1-0.4,0.4-0.4c1.2-0.1,2-0.9,2.1-2.1
		c0-0.3,0.1-0.5,0.4-0.5C20.6,9.4,20.7,9.6,20.7,9.9z"/>
</g>
</svg>
