<?xml version="1.0" encoding="utf-8"?>
<!-- Generator: Adobe Illustrator 25.2.1, SVG Export Plug-In . SVG Version: 6.00 Build 0)  -->
<svg version="1.1" id="Layer_1" xmlns="http://www.w3.org/2000/svg" xmlns:xlink="http://www.w3.org/1999/xlink" x="0px" y="0px" width="24" height="21"
	 viewBox="0 0 24 21" style="enable-background:new 0 0 24 21;" xml:space="preserve">
<style type="text/css">
	.st0{fill:#5DC4B4;}
</style>
<g>
	<g>
		<path class="st0" d="M16.1,0.3C16.7,0.5,17,1,16.9,1.7c0,0.5,0,1,0,1.5c0.5,0,0.9,0,1.4,0c0.9,0,1.3,0.4,1.3,1.3
			c0,1.9,0,3.8,0,5.7c0,0.3-0.1,0.5-0.4,0.5c-0.4,0-0.5-0.2-0.5-0.6c0-1.8,0-3.6,0-5.4c0-0.2,0-0.3,0-0.6c-0.6,0-1.1,0-1.7,0
			c0,0.1,0,0.3,0,0.4c0,1.8,0,3.7,0,5.5c0,0.4-0.1,0.6-0.5,0.5c-0.3,0-0.5-0.2-0.5-0.6c0-1,0-2,0-3.1c-4.1,0-8.1,0-12.2,0
			c0,0.2,0,0.3,0,0.5c0,2.3,0,4.7,0,7c0,0.4,0.1,0.5,0.5,0.5c2.1,0,4.3,0,6.4,0c0.3,0,0.6,0,0.6,0.5c0,0.3-0.2,0.5-0.6,0.5
			c-1.4,0-2.8,0-4.3,0c0,0.6,0,1.1,0,1.7C6.5,18,6.7,18,6.9,18c1.3,0,2.6,0,3.8,0c0.4,0,0.6,0.2,0.5,0.6c0,0.1-0.2,0.3-0.4,0.3
			c-1.5,0-2.9,0-4.4,0c-0.6,0-0.9-0.4-1-1c0-0.6,0-1.2,0-1.8c-0.4,0-0.8,0-1.2,0c-0.8,0.1-1.3-0.2-1.5-1c0-4.6,0-9.2,0-13.9
			c0.2-0.5,0.5-0.8,1-1C7.9,0.3,12,0.3,16.1,0.3z M16,6.2c0-1.5,0-3,0-4.5c0-0.4-0.1-0.4-0.4-0.4c-3.8,0-7.5,0-11.3,0
			c-0.4,0-0.5,0.1-0.5,0.5c0,1.3,0,2.7,0,4c0,0.1,0,0.2,0,0.4C7.9,6.2,11.9,6.2,16,6.2z"/>
		<path class="st0" d="M20,20.7c-0.5-0.6-1-1.2-1.5-1.7c-1,0.6-2.1,0.8-3.2,0.5c-0.9-0.3-1.5-0.8-2-1.5c-1-1.5-0.8-3.5,0.6-4.8
			c1.3-1.2,3.3-1.4,4.8-0.3c1.3,0.9,2.3,2.9,1,5.2c0.5,0.6,1,1.1,1.6,1.7C20.8,20,20.5,20.4,20,20.7C20.1,20.7,20.1,20.7,20,20.7z
			 M19.3,15.9c0-1.6-1.2-2.8-2.8-2.9c-1.6,0-2.9,1.3-2.9,2.8c0,1.6,1.3,2.8,2.8,2.9C18,18.7,19.3,17.4,19.3,15.9z"/>
		<path class="st0" d="M9.2,8.8c-0.3,1.7,0.2,3.2,1.3,4.5c-0.7,0.6-2,0.6-2.8-0.2c-0.8-0.7-1.1-1.9-0.7-2.9C7.3,9.3,8.2,8.7,9.2,8.8
			z"/>
		<path class="st0" d="M12.7,11c-0.9,0-1.9,0-2.8,0c0-1,0-1.9,0-2.8C11.3,8,12.6,9.3,12.7,11z M12.3,10.7c-0.1-1.2-1.2-2.2-2.2-2.2
			c0,0.7,0,1.5,0,2.2C10.9,10.7,11.6,10.7,12.3,10.7z"/>
		<path class="st0" d="M11.1,13.4c-0.4-0.6-0.7-1.3-1.1-1.9c0.7,0,1.4,0,2.1,0C12.1,12.4,11.7,12.9,11.1,13.4z"/>
		<path class="st0" d="M11.2,2.4c0.3,0,0.5,0,0.8,0c0,1.1,0,2.2,0,3.3c-0.3,0-0.5,0-0.8,0C11.2,4.6,11.2,3.6,11.2,2.4z"/>
		<path class="st0" d="M7.4,2.4c0.9-0.1,0.9-0.1,0.9,0.7c0,0.9,0,1.7,0,2.6c-0.3,0-0.6,0-0.9,0C7.4,4.6,7.4,3.6,7.4,2.4z"/>
		<path class="st0" d="M6.3,5.7c-0.3,0-0.5,0-0.8,0c0-0.9,0-1.8,0-2.7C5.7,3,6,3,6.3,3C6.3,3.9,6.3,4.8,6.3,5.7z"/>
		<path class="st0" d="M9.3,5.7c0-0.6,0-1.2,0-1.8c0.3,0,0.6,0,0.9,0c0,0.6,0,1.2,0,1.8C9.9,5.7,9.6,5.7,9.3,5.7z"/>
		<path class="st0" d="M13.1,5.7c0-0.6,0-1.2,0-1.8c0.3,0,0.5,0,0.9,0c0,0.6,0,1.2,0,1.8C13.7,5.7,13.5,5.7,13.1,5.7z"/>
	</g>
</g>
</svg>
