<?xml version="1.0" encoding="utf-8"?>
<!-- Generator: Adobe Illustrator 25.2.1, SVG Export Plug-In . SVG Version: 6.00 Build 0)  -->
<svg version="1.1" id="Layer_1" xmlns="http://www.w3.org/2000/svg" xmlns:xlink="http://www.w3.org/1999/xlink" x="0px" y="0px" width="24" height="21"
	 viewBox="0 0 24 21" style="enable-background:new 0 0 24 21;" xml:space="preserve">
<style type="text/css">
	.st0{fill:#F16476;}
</style>
<g>
	<g>
		<path class="st0" d="M15,18.4c0.2,0.6,0.5,1.2,0.7,1.7c0,0.1,0.1,0.1,0.2,0.1c0.6,0,1.2,0,1.7,0c0.3,0,0.4,0.1,0.4,0.3
			c0,0.2-0.2,0.3-0.4,0.3c-3.5,0-7,0-10.5,0c-0.2,0-0.4-0.1-0.4-0.3c0-0.2,0.1-0.3,0.4-0.3c0.6,0,1.2,0,1.8,0c0.1,0,0.2-0.1,0.2-0.1
			c0.2-0.6,0.5-1.1,0.7-1.7c-0.1,0-0.2,0-0.2,0c-2.1,0-4.2,0-6.3,0c-1,0-1.7-0.7-1.7-1.7c0-2.3,0-4.5,0-6.8c0-0.1-0.1-0.3-0.2-0.4
			c-0.9-1-0.9-2.5,0-3.5c0.1-0.1,0.1-0.2,0.1-0.3c0-0.3,0-0.6,0-0.9C1.8,4,2.5,3.5,3.3,3.5c0.3,0,0.7,0,1,0c0.2,0,0.3,0,0.3-0.2
			C5,2.8,5.4,2.2,5.7,1.6c0.1-0.1,0.1-0.2,0.1-0.3c0-0.1,0-0.2,0-0.3C6,0.5,6.9,0,7.4,0.1c0.2,0.1,0.4,0.2,0.5,0.4
			c0.3,0.5,0.6,1,0.9,1.5C8.9,2.2,9,2.3,9,2.3c0.8,0,1.3,0.4,1.7,1c0.1,0.2,0.2,0.2,0.4,0.2c3.4,0,6.8,0,10.3,0
			c1.1,0,1.8,0.7,1.8,1.8c0,2.6,0,5.2,0,7.8c0,1.2,0,2.4,0,3.6c0,1.1-0.9,1.8-1.8,1.8c-2.1,0-4.1,0-6.2,0
			C15.2,18.4,15.1,18.4,15,18.4z M21.1,5.6c-3.4,0-6.8,0-10.2,0C10.9,5.7,11,5.8,11,5.9c0.3,0.5,0.6,1,0.8,1.5
			c0.2,0.4,0.2,0.7-0.2,1.1c-0.2,0.2-0.5,0.4-0.7,0.5c-0.3,0.1-0.6,0.1-0.8-0.1C10,8.8,9.9,8.7,9.8,8.8C8.7,8.8,7.6,8.9,6.5,9
			C6.3,9,6.2,9.1,6,9.1c0.4,0.7,0.8,1.4,1.2,2.1c0.2,0.4,0.4,0.7,0.9,0.7c0,0,0.1,0,0.1,0c0.1,0.1,0.3,0.2,0.3,0.4
			c0.1,0.2-0.1,0.3-0.3,0.4c-0.6,0.4-1.2,0.7-1.9,1.1c-0.3,0.2-0.5,0.2-0.6-0.2c-0.6-1-1.1-1.9-1.7-2.9c0-0.1-0.1-0.2-0.2-0.3
			c0,1.7,0,3.3,0,4.9c5.8,0,11.5,0,17.2,0C21.1,12.1,21.1,8.9,21.1,5.6z M22.5,16c-6.7,0-13.5,0-20.2,0c0,0.3,0,0.5,0,0.8
			c0,0.6,0.4,1,1,1c0.8,0,1.5,0,2.3,0c3.2,0,6.5,0,9.7,0c2.1,0,4.2,0,6.3,0c0.5,0,0.9-0.4,1-0.9C22.5,16.6,22.5,16.3,22.5,16z
			 M22.5,15.4c0-0.1,0-0.2,0-0.3c0-2.7,0-5.5,0-8.2c0-0.5,0-1.1,0-1.6c0-0.7-0.4-1-1-1c-3.4,0-6.7,0-10.1,0c-0.1,0-0.2,0-0.3,0
			c0,0.3,0,0.5,0,0.8c0.1,0,0.3,0,0.4,0c3.2,0,6.4,0,9.6,0c0.5,0,0.6,0.1,0.6,0.6c0,3.2,0,6.3,0,9.5c0,0.1,0,0.2,0,0.3
			C22,15.4,22.3,15.4,22.5,15.4z M6.2,2.1C6.1,2.2,6.1,2.3,6,2.3C5.5,3.1,5,3.9,4.5,4.7C4.4,4.8,4.4,5,4.5,5.1c0.6,1,1.2,2,1.8,3
			c0,0.1,0.2,0.1,0.3,0.1c0.6,0,1.1-0.1,1.7-0.1c0.5,0,0.9-0.1,1.4-0.1C8.5,6.1,7.3,4.1,6.2,2.1z M5.8,8.5C5.1,7.4,4.5,6.4,3.9,5.3
			c-0.6,0.3-1.1,0.6-1.6,1C1.8,6.6,1.5,7,1.5,7.6c-0.1,1.5,1.4,2.5,2.7,1.8C4.7,9.2,5.2,8.9,5.8,8.5z M11.3,7.8
			c0-0.1-0.1-0.1-0.1-0.2c-0.1-0.2-0.2-0.4-0.4-0.6C9.7,5,8.6,3,7.5,1C7.4,0.9,7.3,0.8,7.2,0.8C6.9,0.7,6.7,0.9,6.6,1.1
			c-0.2,0.2-0.1,0.3,0,0.5c1,1.7,2,3.4,3,5.2c0.3,0.4,0.5,0.9,0.8,1.3c0.1,0.2,0.3,0.3,0.6,0.2C11.1,8.2,11.3,8.1,11.3,7.8z
			 M9.9,20.2c1.7,0,3.4,0,5.2,0c-0.2-0.6-0.5-1.2-0.7-1.7c0-0.1-0.1-0.1-0.2-0.1c-1.1,0-2.3,0-3.4,0c-0.1,0-0.2,0.1-0.2,0.1
			C10.3,19.1,10.1,19.6,9.9,20.2z M4.4,10.1c0.6,1,1.2,2,1.7,3c0.4-0.2,0.8-0.4,1.1-0.7c-0.1-0.1-0.2-0.3-0.3-0.4
			c-0.3-0.4-0.5-0.8-0.7-1.3c-0.3-0.4-0.5-0.9-0.8-1.3C5.1,9.7,4.7,9.9,4.4,10.1z M3.1,15.4c0-1.7,0-3.4,0-5.1
			c-0.3-0.1-0.5-0.1-0.8-0.2c0,1.8,0,3.5,0,5.2C2.6,15.4,2.9,15.4,3.1,15.4z M4,4.2C2.8,4,2.1,4.6,2.3,5.5C2.9,5,3.7,4.9,4,4.2z
			 M9.3,2.9c0.4,0.7,0.8,1.3,1.2,2C10.7,4.2,10,3,9.3,2.9z"/>
		<path class="st0" d="M16.3,9.1c1,0,2,0,3,0c0.4,0,0.5,0.1,0.5,0.5c0,1.5,0,3,0,4.5c0,0.4-0.1,0.5-0.5,0.5c-2,0-4,0-6,0
			c-0.4,0-0.5-0.1-0.5-0.5c0-1.5,0-3,0-4.4c0-0.4,0.1-0.5,0.5-0.5C14.2,9.1,15.3,9.1,16.3,9.1z M13.4,13.9c1.9,0,3.8,0,5.6,0
			c0-1.4,0-2.7,0-4.1c-1.9,0-3.7,0-5.6,0C13.4,11.2,13.4,12.5,13.4,13.9z"/>
		<path class="st0" d="M16.3,6.2c0.8,0,1.6,0,2.3,0c0.3,0,0.4,0.1,0.4,0.3c0,0.2-0.1,0.3-0.4,0.3c-1.6,0-3.1,0-4.7,0
			c-0.3,0-0.4-0.1-0.4-0.3c0-0.2,0.1-0.3,0.4-0.3C14.7,6.2,15.5,6.2,16.3,6.2z"/>
		<path class="st0" d="M16.2,8.3c-0.8,0-1.6,0-2.3,0c-0.3,0-0.4-0.1-0.4-0.3c0-0.3,0.2-0.3,0.4-0.3c1.6,0,3.2,0,4.7,0
			c0.2,0,0.4,0.1,0.4,0.3c0,0.2-0.1,0.3-0.4,0.3C17.8,8.3,17,8.3,16.2,8.3L16.2,8.3z"/>
		<path class="st0" d="M14.9,11.8c0-0.4,0-0.7,0-1.1c0-0.3,0.2-0.5,0.5-0.3c0.6,0.4,1.3,0.7,1.9,1.1c0.3,0.2,0.3,0.4,0,0.6
			c-0.6,0.4-1.3,0.7-1.9,1.1c-0.4,0.2-0.6,0.1-0.6-0.3c0-0.2,0-0.4,0-0.5S14.9,12,14.9,11.8z M15.5,12.5c0.4-0.2,0.7-0.4,1.1-0.6
			c-0.4-0.2-0.7-0.4-1.1-0.6C15.5,11.6,15.5,12,15.5,12.5z"/>
	</g>
</g>
</svg>
