<?xml version="1.0" encoding="utf-8"?>
<!-- Generator: Adobe Illustrator 25.2.1, SVG Export Plug-In . SVG Version: 6.00 Build 0)  -->
<svg version="1.1" id="Layer_1" xmlns="http://www.w3.org/2000/svg" xmlns:xlink="http://www.w3.org/1999/xlink" x="0px" y="0px" width="24" height="21"
	 viewBox="0 0 24 21" style="enable-background:new 0 0 24 21;" xml:space="preserve">
<style type="text/css">
	.st0{fill:#EC2F2D;}
	.st1{fill:#248EC8;}
	.st2{fill:#EC2F2C;}
	.st3{fill:#238EC7;}
	.st4{fill:#228EC8;}
	.st5{fill:#298FC8;}
</style>
<g>
	<path class="st0" d="M13.9,0.9c0.3,0.4,0.3,0.9,0.3,1.5c0,0.9-0.4,1.7-1.1,2.3c-0.6,0.6-1.2,1.2-1.8,1.8c-1.2,1.3-1.3,1.9-0.4,3.4
		c0.1,0.2,0.3,0.4,0.4,0.7c0.1,0.1,0.1,0.2,0.1,0.3c-0.6-0.7-1.3-1.3-1.7-2.1C9.2,7.9,9.2,7.4,9.8,6.7c0.4-0.5,0.9-0.9,1.3-1.3
		c0.4-0.3,0.8-0.7,1.2-1C13.5,3.5,14.1,2.4,13.9,0.9z"/>
	<path class="st1" d="M7.2,17.2c-0.3,0.1-0.7,0.2-1,0.3C6.1,17.6,6,17.6,6,17.8C6,18,6.2,18,6.3,18.1c0.6,0.2,1.2,0.3,1.9,0.3
		c2.5,0.3,4.9,0.1,7.4-0.1c0.7-0.1,1.3-0.2,1.9-0.4c0.2-0.1,0.5-0.2,0.4-0.6c0.3,0.2,0.3,0.4,0,0.6c-0.5,0.4-1.2,0.6-1.8,0.7
		c-1,0.3-2.1,0.3-3.2,0.4c-2.1,0.1-4.1,0.1-6.1-0.1c-0.5-0.1-1.1-0.1-1.6-0.3c-0.2-0.1-0.4-0.1-0.4-0.3c0-0.2,0.1-0.4,0.3-0.5
		C5.5,17.4,6.6,17.1,7.2,17.2z"/>
	<path class="st2" d="M15.8,4.9c-0.7,0.4-1.3,0.9-1.9,1.4c-0.3,0.2-0.5,0.5-0.7,0.8c-0.3,0.4-0.3,0.8,0,1.3c0.2,0.3,0.4,0.6,0.5,0.9
		c0.5,0.9,0.4,1.4-0.3,2.1c-0.2,0.1-0.3,0.3-0.5,0.4c0,0-0.1,0-0.2,0.1c0.1-0.2,0.2-0.4,0.3-0.5c0.2-0.3,0.2-0.7,0-1
		c-0.2-0.3-0.4-0.6-0.6-0.9c-0.7-1-0.6-2.1,0.3-2.9c0.8-0.8,1.9-1.3,3-1.6C15.7,4.8,15.7,4.8,15.8,4.9z"/>
	<path class="st3" d="M14.9,16.6c-1.3,0.4-2.6,0.7-4,0.6c-0.4,0-0.8-0.1-1.3-0.2c-0.2,0-0.3-0.1-0.5-0.1c-0.3-0.1-0.7-0.2-0.7-0.6
		c0-0.4,0.4-0.5,0.7-0.6c-0.1,0.4,0.2,0.5,0.5,0.5c1.3,0.1,2.5,0.1,3.8-0.1c0.3-0.1,0.6-0.1,0.8,0.1C14.4,16.4,14.6,16.5,14.9,16.6z
		"/>
	<path class="st4" d="M15.1,14.5c-0.8,0.3-1.6,0.5-2.4,0.5c-1.4,0.1-2.8,0.1-4.2-0.2c-0.1,0-0.2-0.1-0.3-0.1
		c-0.2-0.1-0.4-0.2-0.3-0.5c0.1-0.2,0.5-0.6,0.7-0.5c0.1,0,0.1,0.1,0.1,0.2c-0.1,0.2,0.1,0.3,0.2,0.4c0.2,0.1,0.5,0.1,0.7,0.1
		c1.5,0.1,3,0,4.5-0.3c0.2,0,0.4,0,0.6,0.1C14.8,14.3,14.9,14.4,15.1,14.5z"/>
	<path class="st1" d="M9.3,11.4c-0.5,0.2-0.9,0.3-1.2,0.5c-0.1,0.1-0.3,0.1-0.3,0.3c0,0.2,0.2,0.2,0.4,0.2c0.5,0.1,0.9,0.1,1.4,0.1
		c2.1,0.1,4.2-0.1,6.2-0.5c0,0,0.1,0,0.1,0c-0.4,0.3-0.8,0.5-1.3,0.6c-2.1,0.3-4.2,0.5-6.4,0.3c-0.6-0.1-1.1-0.1-1.6-0.3
		c-0.1,0-0.2-0.1-0.2-0.2c0-0.1,0.1-0.2,0.2-0.3C7,11.8,8.6,11.4,9.3,11.4z"/>
	<path class="st5" d="M7.8,19.6c0.4-0.1,0.7,0,1.1,0c2.4,0.2,4.8,0.2,7.2-0.2c0.9-0.2,1.7-0.4,2.4-0.9c0.1,0,0.2-0.1,0.2,0
		c0.1,0.1-0.1,0.2-0.1,0.2c-0.3,0.3-0.8,0.5-1.2,0.7c-1,0.4-2.1,0.5-3.2,0.6c-1.2,0.1-2.4,0.1-3.6,0.1C9.8,20,8.8,19.8,7.8,19.6z"/>
	<path class="st1" d="M16.5,11.4c0.8-0.4,1.7-0.3,2.2,0.3c0.3,0.4,0.4,0.8,0.2,1.3c-0.1,0.3-0.3,0.6-0.6,0.8c-0.6,0.5-1.3,0.8-2.1,1
		c0.4-0.3,0.8-0.5,1.1-0.9c0.3-0.3,0.6-0.5,0.7-0.9c0.4-0.9,0-1.6-1-1.7C16.9,11.4,16.7,11.4,16.5,11.4z"/>
</g>
</svg>
