<?xml version="1.0" encoding="utf-8"?>
<!-- Generator: Adobe Illustrator 25.2.1, SVG Export Plug-In . SVG Version: 6.00 Build 0)  -->
<svg version="1.1" id="Layer_1" xmlns="http://www.w3.org/2000/svg" xmlns:xlink="http://www.w3.org/1999/xlink" x="0px" y="0px" width="24" height="21"
	 viewBox="0 0 24 21" style="enable-background:new 0 0 24 21;" xml:space="preserve">
<style type="text/css">
	.st0{fill:#010101;}
	.st1{fill:none;}
	.st2{fill:#FFCB3C;}
	.st3{fill:#386C9C;}
</style>
<g>
	<g>
		<path class="st0" d="M13,10.8c0.1,0,0.1,0,0.2,0"/>
		<path class="st0" d="M4.3,14.6c0,0,0.1,0,0.1,0.1C4.4,14.7,4.3,14.6,4.3,14.6z"/>
		<path class="st0" d="M4.6,14.7C4.6,14.7,4.6,14.8,4.6,14.7c0,0.1-0.1,0-0.1,0C4.5,14.7,4.5,14.7,4.6,14.7z"/>
		<path class="st0" d="M10.9,19.6"/>
		<path class="st0" d="M7.8,5.4C7.8,5.4,7.8,5.4,7.8,5.4C7.8,5.4,7.8,5.4,7.8,5.4z"/>
		<path class="st0" d="M16.5,3.6C16.5,3.6,16.4,3.6,16.5,3.6C16.4,3.6,16.5,3.6,16.5,3.6C16.5,3.6,16.5,3.6,16.5,3.6z"/>
	</g>
	<g>
		<path class="st1" d="M18.6,5.7L18.6,5.7h-1.2c0,0.3,0,1,0,2.5c0,0.7-0.2,1.3-0.7,1.8c-0.9,0.9-2.4,0.8-2.5,0.8l-4.6,0
			c-0.7,0-1.2,0.2-1.5,0.5c-0.5,0.5-0.5,1.3-0.5,1.3v0l0,2.6l0,0l0,2.6c0,0,0,0.6,0.5,1.1c0.5,0.5,1.6,1.1,4.1,1h0c0,0,0,0,0,0
			c2.5,0,3.6-0.6,4.1-1.1c0.5-0.5,0.4-1,0.4-1v0v0l0-2.1l-4.4,0l0-0.7l6.4,0h0c0,0,0.8,0.1,1.6-0.6c0.8-0.7,1.3-2.1,1.3-4
			c0-1.9-0.4-3.3-1.2-4.1C19.6,5.7,18.6,5.7,18.6,5.7z"/>
		<path class="st1" d="M6.9,12.7c0-0.1,0-1.1,0.6-1.8c0.5-0.5,1.1-0.8,2-0.8l4.7,0c0,0,1.3,0,2-0.7c0.3-0.3,0.5-0.7,0.5-1.3
			c0-2.1,0-2.7,0.1-2.8l0-1.9c0-0.5-0.4-1.6-1.6-2c-1.4-0.5-2.9-0.5-3.3-0.5c-0.1,0-0.1,0-0.2,0c-0.7,0-1.6,0-2.6,0.4l0,0
			C7.2,1.8,7.4,3.4,7.4,3.5v0l0,1.8l4.4,0v0.7l-4.1,0L5.3,6c-0.1,0-2.9,0.2-2.9,4.8c0,1.8,0.4,3.1,1.2,3.8c0.8,0.7,1.6,0.7,1.6,0.7
			h0l1.6,0L6.9,12.7L6.9,12.7z"/>
		<path class="st2" d="M20.8,6c-1-1-2.1-1-2.2-1h-1.2l0-1.6c0-0.8-0.6-2.1-2-2.7c-1.5-0.5-3-0.6-3.6-0.6c-0.1,0-0.1,0-0.2,0
			c-0.7,0-1.7,0-2.8,0.4C7,1.2,6.6,2.7,6.7,3.5l0,1.8l-1.4,0c0,0-0.9,0-1.8,0.7c-0.8,0.6-1.7,2-1.7,4.7c0,2,0.5,3.4,1.5,4.3
			c0.9,0.9,1.9,0.9,2.1,0.8l1.6,0l0,2c0,0.1,0,0.9,0.7,1.6c0.8,0.8,2.2,1.3,4.2,1.3c0.1,0,0.3,0,0.4,0c0,0,0,0,0,0
			c2.2,0,3.8-0.5,4.6-1.4c0.6-0.7,0.6-1.4,0.6-1.5v-2h1.3c0,0,0.1,0,0.2,0c0.4,0,1.1-0.1,1.9-0.7c1-0.9,1.5-2.4,1.6-4.5
			C22.2,8.5,21.8,7,20.8,6z M5.3,15.2L5.3,15.2c0,0-0.8,0-1.6-0.7c-0.8-0.8-1.2-2-1.2-3.8C2.4,6.1,5.2,6,5.3,6l2.4,0l4.1,0V5.3
			l-4.4,0l0-1.8l0,0c0-0.1-0.1-1.6,1.6-2.2l0,0c1-0.4,1.9-0.4,2.6-0.4c0.1,0,0.1,0,0.2,0c0.4,0,1.9,0,3.3,0.5c1.2,0.4,1.6,1.6,1.6,2
			v1.9c0,0.1-0.1,0.7-0.1,2.8c0,0.5-0.2,1-0.5,1.3c-0.7,0.7-2,0.7-2,0.7l-4.7,0c-0.9,0-1.5,0.3-2,0.8c-0.7,0.7-0.6,1.7-0.6,1.8
			l0,2.5H5.3z M21.5,10.6c0,1.9-0.5,3.3-1.3,4c-0.7,0.6-1.5,0.6-1.6,0.6h0l-6.4,0v0.7l4.4,0v2.1v0v0c0,0,0,0.5-0.4,1
			c-0.5,0.5-1.6,1.1-4.1,1.1c0,0,0,0,0,0h0c-2.4,0.1-3.6-0.5-4.1-1c-0.5-0.6-0.5-1.1-0.5-1.1l0-2.6l0,0l0-2.6v0c0,0-0.1-0.8,0.5-1.3
			c0.3-0.4,0.8-0.5,1.5-0.5l4.6,0c0.1,0,1.6,0,2.5-0.8c0.5-0.4,0.7-1,0.7-1.8c0-1.5,0-2.2,0-2.5h1.2h0c0,0,0.9,0,1.8,0.8
			C21.2,7.3,21.6,8.7,21.5,10.6z"/>
		<path class="st3" d="M6.9,15.9h0.7c0,0,0-0.9,0-3.1c0-2.2,2-2,2-2l4.3,0c3.9,0,3.6-2.6,3.6-2.6l0.1-3.2l0-1.6c0-0.8-0.6-2.1-2-2.7
			c-1.5-0.5-3-0.6-3.6-0.6c-0.1,0-0.1,0-0.2,0c-0.7,0-1.7,0-2.8,0.4C7,1.2,6.6,2.8,6.7,3.5l0,1.8l-1.4,0c0,0-0.9,0-1.8,0.7
			c-0.8,0.6-1.7,2-1.7,4.7c0,2,0.5,3.4,1.5,4.3c0.9,0.9,1.9,0.9,2.1,0.8L6.9,15.9l0-0.7 M5.3,15.2L5.3,15.2c0,0-0.8,0-1.6-0.7
			c-0.8-0.8-1.2-2-1.2-3.8C2.4,6.1,5.2,6,5.3,6l2.4,0l4.1,0V5.3l-4.4,0l0-1.8l0,0c0-0.1-0.1-1.6,1.6-2.2l0,0c1-0.4,1.9-0.4,2.6-0.4
			c0.1,0,0.1,0,0.2,0c0.4,0,1.9,0,3.3,0.5c1.2,0.4,1.6,1.6,1.6,2v1.9c0,0.1-0.1,0.7-0.1,2.8c0,0.5-0.2,1-0.5,1.3
			c-0.7,0.7-2,0.7-2,0.7l-4.7,0c-0.9,0-1.5,0.3-2,0.8c-0.7,0.7-0.6,1.7-0.6,1.8l0,2.5H5.3z"/>
	</g>
	<circle class="st3" cx="9.5" cy="3.5" r="0.8"/>
	<circle class="st2" cx="14.6" cy="17.5" r="0.8"/>
</g>
</svg>
