<?xml version="1.0" encoding="utf-8"?>
<!-- Generator: Adobe Illustrator 25.2.1, SVG Export Plug-In . SVG Version: 6.00 Build 0)  -->
<svg version="1.1" id="Layer_1" xmlns="http://www.w3.org/2000/svg" xmlns:xlink="http://www.w3.org/1999/xlink" x="0px" y="0px"
	 viewBox="0 0 500 500" style="enable-background:new 0 0 500 500;" xml:space="preserve">
<style type="text/css">
	.st0{fill:none;stroke:#F1F0F0;stroke-miterlimit:10;}
	.st1{fill:none;}
	.st2{fill:#39144E;}
	.st3{fill:#56CBF5;}
	.st4{fill:#5AC3B4;}
	.st5{fill:#7E74B6;}
	.st6{fill:#FFCA3C;}
	.st7{fill:#376B9B;}
	.st8{fill:#F16375;}
	.st9{fill:#3EA090;}
	.st10{fill:none;stroke:#000000;stroke-width:9;stroke-miterlimit:10;}
	.st11{fill:#FDD700;}
	.st12{fill:none;stroke:#000000;stroke-miterlimit:10;}
	.st13{fill:#E3BD22;}
	.st14{fill:#FFFFFF;}
	.st15{fill:none;stroke:#12AA50;stroke-width:9;stroke-miterlimit:10;}
	.st16{fill:none;stroke:#393939;stroke-width:9;stroke-miterlimit:10;}
	.st17{fill:none;stroke:#31BFE5;stroke-width:9;stroke-miterlimit:10;}
	.st18{fill:none;stroke:#8DC74D;stroke-width:9;stroke-miterlimit:10;}
	.st19{fill:none;stroke:#9E8868;stroke-width:9;stroke-miterlimit:10;}
	.st20{fill:none;stroke:#323232;stroke-width:9;stroke-miterlimit:10;}
	.st21{fill:none;stroke:#92C54C;stroke-width:9;stroke-miterlimit:10;}
	.st22{fill:none;stroke:#DD2126;stroke-width:9;stroke-miterlimit:10;}
	.st23{fill:#EC2B2B;}
	.st24{fill:#218EC8;}
	.st25{fill:#EC2B2A;}
	.st26{fill:#1E8DC7;}
	.st27{fill:#1F8DC8;}
	.st28{fill:#248FC9;}
</style>
<image style="overflow:visible;" width="981" height="295" xlink:href="C9411A1C.jpg"  transform="matrix(1 0 0 1 -2704.9099 -1246.6138)">
</image>
<image style="overflow:visible;" width="900" height="900" xlink:href="C9411A1D.jpg"  transform="matrix(1 0 0 1 -5165.1172 -646.2384)">
</image>
<path class="st0" d="M-4800-168.8c0,0-26.5,2.6-26.5,28.3c0,22.4,0,18.4,0,84.3c0,0,0,84.3,82.2,84.3c85.3,0,85.3-85.8,85.3-85.8
	v-79.8c0,0-1.3-31.5-26.6-30.5c-22.2,0-29.4,19-29.4,33.3v27.7l0.4,42.8c0,0,3.6,37-32.1,37c-28.6-1.5-24.5-45.8-24.5-41.2
	c0,4.6,0-69.5,0-69.5S-4772.7-168.8-4800-168.8z"/>
<path class="st1" d="M-4617.7-161.4"/>
<path class="st2" d="M-4623.4-125l-3.8-4.7C-4626.1-128-4624.8-126.4-4623.4-125z"/>
<path class="st2" d="M-4507.1,20.6l-4.1-5.1C-4510,17.3-4508.6,19-4507.1,20.6z"/>
<path class="st2" d="M-4582,15.4l-4.1,5.2C-4584.5,19-4583.2,17.3-4582,15.4z"/>
<path class="st2" d="M-4465.2-131l-5.6,7.1C-4468.6-126-4466.7-128.4-4465.2-131z"/>
<g>
	<path class="st2" d="M-4507.1,20.6c4.8,4.7,11.3,7.6,18.6,7.6c14.7,0,26.6-11.9,26.6-26.6c0-6-2-11.5-5.4-16L-4507.1,20.6z"/>
	<path class="st2" d="M-4624.3-16.3c-4.3,4.7-6.9,11-6.9,17.8c0,14.7,11.9,26.6,26.6,26.6c7.2,0,13.8-2.9,18.6-7.6L-4624.3-16.3
		L-4624.3-16.3z"/>
	<path class="st2" d="M-4604.7-170.4c-14.7,0-26.6,11.9-26.6,26.6c0,5.2,1.5,10,4.1,14.1l42.4-31.6
		C-4589.6-166.9-4596.7-170.4-4604.7-170.4z"/>
	<path class="st2" d="M-4461.9-143.8c0-14.7-11.9-26.6-26.6-26.6c-7.9,0-15,3.5-19.9,9l43.2,30.3
		C-4463.1-134.8-4461.9-139.2-4461.9-143.8z"/>
	<polygon class="st2" points="-4467.3,-14.4 -4468.2,-15.5 -4512.8,-71.3 -4470.8,-124 -4465.2,-131 -4465.2,-131 -4508.4,-161.3 
		-4508.4,-161.4 -4508.6,-161.2 -4510,-159.3 -4546.6,-113.6 -4583.2,-159.4 -4584.7,-161.3 -4584.8,-161.4 -4584.8,-161.4 
		-4627.2,-129.7 -4627.2,-129.7 -4627.2,-129.7 -4623.4,-125 -4580.4,-71.2 -4624.3,-16.3 -4624.3,-16.3 -4586.1,20.6 -4586.1,20.6 
		-4582,15.4 -4546.6,-28.9 -4511.1,15.5 -4507.1,20.6 -4507.1,20.6 -4467.3,-14.4 	"/>
</g>
<g>
	<g>
		<g>
			<path class="st3" d="M-2897,115.2c2.4,0.6,4.8,1,7,1.8c13.6,4.6,22.8,17.1,22.9,31.4c0.1,16.9,0,33.8,0,50.8
				c0,4.5-2.9,7.9-7.1,8.6c-3.9,0.6-7.9-1.7-9.1-5.4c-0.4-1.1-0.6-2.2-0.6-3.4c0-16.6,0-33.2-0.1-49.9c0-8.2-5.4-15-13.2-16.7
				c-1.2-0.2-2.4-0.4-3.6-0.4c-28.1,0-56.2,0-84.3,0c-7.3,0-13.5,4.4-15.9,11.3c-0.7,2-1,4.3-1,6.5c-0.1,44.5,0,89,0,133.4
				c0,9.8,6.8,17,16.5,17.3c11.1,0.2,22.2,0.1,33.2,0.1c0.2,0,0.4-0.1,0.8-0.1c0-0.6,0-1.3,0-1.9c0-21.5,0-43,0-64.6
				c0-6,3.1-9.2,9.1-9.2c15.8-0.1,31.5,0,47.3,0c33.3,0,66.7,0,100,0c12.1,0,24.2,0,36.2,0.1c5,0,7.3,1.6,9.2,6.3
				c0.1,0.1,0.2,0.2,0.3,0.3c0,48.8,0,97.7,0,146.5c-0.5,1.1-1,2.2-1.6,3.2c-1.2,2-3.3,2.8-5.3,3.7c-62.9,0-125.8,0-188.7,0
				c-0.1-0.1-0.2-0.2-0.3-0.3c-4.5-1.6-6.3-4.9-6.3-9.6c0.1-18.8,0-37.5,0-56.3c0-0.4-0.1-0.8-0.1-1.3c-0.8,0-1.6,0-2.3,0
				c-10.4,0-20.8,0-31.1,0c-14,0-26.3-8.3-31.4-21.3c-1.1-2.8-1.6-5.9-2.4-8.9c0-47.3,0-94.7,0-142c0.1-0.3,0.2-0.6,0.3-1
				c2.8-15,11.5-24.4,26.3-28.2c1-0.3,2-0.5,3-0.8C-2958.3,115.2-2927.6,115.2-2897,115.2z M-2934.4,241.7c0,0.7,0,1.3,0,1.9
				c0,21.3,0,42.5,0,63.8c0,19.8,0,39.5,0,59.3c0,1.1,0.3,1.4,1.3,1.4c2.2-0.1,4.5-0.1,6.7-0.1c23.1,0,46.1,0,69.2,0
				c29.9,0,59.8,0,89.7,0c0.5,0,1,0,1.5,0c0-42.2,0-84.3,0-126.3C-2822.1,241.7-2878.2,241.7-2934.4,241.7z"/>
			<path class="st3" d="M-2755.9,384.8c2-0.9,4.1-1.7,5.3-3.7c0.6-1,1-2.1,1.6-3.2c0,2.3,0,4.6,0,6.9
				C-2751.3,384.8-2753.6,384.8-2755.9,384.8z"/>
			<path class="st3" d="M-2984.8,170.6c0-4.5-0.1-9.1,0-13.6c0.1-4.1,3.1-7.5,7-8c4.3-0.6,8,1.7,9.3,5.8c0.4,1.1,0.5,2.3,0.5,3.5
				c0,8,0,16,0,24c0,5.3,3.9,8.9,8.9,8.7c4.5-0.2,7.8-3.9,7.9-8.7c0.1-8.1,0-16.2,0-24.3c0-0.7,0-1.4,0.1-2.1
				c0.8-4.4,4.5-7.3,8.9-6.9c4.2,0.3,7.6,3.7,7.7,8.1c0.1,9,0.1,18,0,26.9c-0.1,4.5-1.6,8.7-4.1,12.5c-6,9.1-17.1,13.3-27.9,10.4
				c-10.1-2.7-17.7-12.1-18.2-22.7C-2984.9,179.6-2984.8,175.1-2984.8,170.6C-2984.8,170.6-2984.8,170.6-2984.8,170.6z"/>
			<path class="st3" d="M-2917.5,178.2c0-6.8,0-13.6,0-20.4c0-6.6,5.3-9.5,9.6-8.9c4.2,0.6,7.2,4.2,7.2,9.1c0,11.7,0,23.4,0,35.2
				c0,2.4,0,4.8-0.2,7.2c-0.5,4.6-4.2,7.6-8.8,7.4c-4.2-0.2-7.7-3.7-7.8-8.2c-0.1-6.3-0.1-12.7-0.1-19
				C-2917.5,179.8-2917.5,179-2917.5,178.2C-2917.5,178.2-2917.5,178.2-2917.5,178.2z"/>
			<path class="st3" d="M-2917.4,276.9c0-4.5-0.1-9.1,0-13.6c0.1-4.1,3.1-7.5,7-8c4.3-0.6,8,1.7,9.3,5.8c0.4,1.1,0.5,2.3,0.5,3.5
				c0,8,0,16,0,24c0,5.3,3.9,8.9,8.9,8.7c4.5-0.2,7.8-3.9,7.9-8.7c0.1-8.1,0-16.2,0-24.3c0-0.7,0-1.4,0.1-2.1
				c0.8-4.4,4.5-7.3,8.9-6.9c4.2,0.3,7.6,3.7,7.7,8.1c0.1,9,0.1,18,0,26.9c-0.1,4.5-1.6,8.7-4.1,12.5c-6,9.1-17.1,13.3-27.9,10.4
				c-10.1-2.7-17.7-12.1-18.2-22.7C-2917.5,285.9-2917.4,281.4-2917.4,276.9C-2917.4,276.9-2917.4,276.9-2917.4,276.9z"/>
			<path class="st3" d="M-2824.7,351.1c-10.9,0-21.8,0-32.6,0c-4.6,0-7.8-2-9-5.5c-1.9-5.7,1.9-11.1,8.1-11.3
				c4.5-0.1,9-0.1,13.5-0.1c17.6,0,35.1,0,52.7,0c2.6,0,5.1,0.5,6.9,2.6c2.4,2.6,3.1,5.5,1.8,8.8c-1.3,3.3-3.7,5.3-7.3,5.3
				c-8,0.1-16.1,0.1-24.1,0.1C-2818.1,351-2821.4,351-2824.7,351.1C-2824.7,351-2824.7,351.1-2824.7,351.1z"/>
			<path class="st3" d="M-2900.6,351c-2.9,0-5.9,0.1-8.8,0c-4-0.1-7.2-3-7.9-6.9c-0.6-3.9,1.4-7.6,5-9.1c1-0.4,2.2-0.7,3.3-0.7
				c5.6-0.1,11.2-0.1,16.8,0c4.6,0.1,8.1,3.5,8.4,7.9c0.3,3.9-2.6,8-6.6,8.6c-2.5,0.4-5.2,0.2-7.8,0.3
				C-2899,351.1-2899.8,351.1-2900.6,351C-2900.6,351-2900.6,351-2900.6,351z"/>
		</g>
		<g>
			<g>
				<path class="st3" d="M-2812.5,311.8c1.4,1.4,3.4,2.3,5.5,2.3c4.4,0,7.9-3.5,7.9-7.9c0-1.8-0.6-3.4-1.6-4.8L-2812.5,311.8z"/>
			</g>
			<g>
				<path class="st3" d="M-2847.5,300.8c-1.3,1.4-2.1,3.3-2.1,5.3c0,4.4,3.5,7.9,7.9,7.9c2.2,0,4.1-0.9,5.5-2.3L-2847.5,300.8
					L-2847.5,300.8z"/>
			</g>
			<g>
				<path class="st3" d="M-2841.7,254.9c-4.4,0-7.9,3.5-7.9,7.9c0,1.5,0.4,3,1.2,4.2l12.7-9.4
					C-2837.2,255.9-2839.3,254.9-2841.7,254.9z"/>
			</g>
			<g>
				<path class="st3" d="M-2799.1,262.8c0-4.4-3.5-7.9-7.9-7.9c-2.4,0-4.5,1-5.9,2.7l12.9,9
					C-2799.4,265.5-2799.1,264.2-2799.1,262.8z"/>
			</g>
			<polygon class="st3" points="-2800.7,301.4 -2800.9,301.1 -2814.3,284.4 -2801.7,268.7 -2800.1,266.6 -2800.1,266.6 
				-2812.9,257.5 -2812.9,257.5 -2813,257.6 -2813.4,258.1 -2824.3,271.8 -2835.3,258.1 -2835.7,257.5 -2835.7,257.5 -2835.7,257.5 
				-2848.4,267 -2848.4,267 -2848.4,267 -2847.3,268.4 -2834.4,284.4 -2847.5,300.8 -2847.5,300.8 -2836.1,311.8 -2836.1,311.8 
				-2834.9,310.3 -2824.4,297.1 -2813.8,310.3 -2812.5,311.8 -2812.5,311.8 -2800.7,301.4 			"/>
		</g>
	</g>
</g>
<g>
	<g>
		<path class="st4" d="M-2227.2,98.7c9.6,3.7,13.7,10.5,13,20.8c-0.5,7.2-0.1,14.5-0.1,22.7c7.1,0,13.9,0,20.6,0
			c13.5,0,19.3,5.6,19.4,18.9c0.1,28.2-0.1,56.4,0.1,84.6c0,4.9-1.4,8-6.6,8c-5.4,0-7.8-2.7-7.8-8.5c0.2-26.7,0.1-53.4,0.1-80.1
			c0-2.5,0-5.1,0-8.2c-8.6,0-16.8,0-25.9,0c0,2.1,0,4.3,0,6.6c0,27.3-0.2,54.7,0.1,82c0.1,5.5-2.1,8.2-7.2,8.1c-5-0.1-7.3-3-7.2-8.4
			c0.3-15.1,0.1-30.3,0.1-45.8c-60.2,0-119.9,0-180.3,0c-0.1,2.3-0.3,4.6-0.3,6.8c0,34.6,0.1,69.2-0.1,103.8c0,6.1,1.6,8.1,7.9,8
			c31.8-0.3,63.7-0.1,95.5-0.2c5,0,9.1,0.4,9.4,6.7c0.2,5.1-2.7,7.5-9.5,7.5c-20.7,0-41.4,0-63,0c0,8.6-0.1,16.9,0,25.2
			c0.1,4.5,3.5,4,6.5,4c19,0,38,0,57,0c6.3,0,9,2.8,7.5,8.5c-0.5,2-3.4,4.9-5.2,4.9c-21.8,0.3-43.6,0.4-65.3-0.1
			c-8.5-0.2-13.9-6.6-14.2-15.3c-0.3-8.9-0.1-17.8-0.1-27.3c-6.6,0-12.3-0.3-18,0.1c-11.2,0.8-18.9-3.4-22.7-14.2
			c0-68.4,0-136.8,0-205.1c2.5-7,6.9-11.9,14.1-14.1C-2348.6,98.7-2287.9,98.7-2227.2,98.7z M-2228.5,185.7
			c0-22.6-0.2-44.5,0.1-66.5c0.1-5.2-1.5-6.5-6.6-6.5c-55.8,0.2-111.5,0.2-167.3,0c-6,0-7.1,2.2-7,7.5c0.2,19.9,0.1,39.7,0.1,59.6
			c0,1.9,0.2,3.7,0.3,5.9C-2348.7,185.7-2289,185.7-2228.5,185.7z"/>
		<path class="st4" d="M-2168.2,401.3c-7.2-8.6-14.5-17.1-21.9-25.9c-15.5,9.1-31.2,12-48.1,6.8c-12.8-3.9-22.7-11.6-30-22.6
			c-15-22.5-11.4-52.2,8.3-71.2c18.8-18.1,49.3-20.1,70.6-5.1c18.9,13.4,33.5,43.3,14.7,76.6c7.7,8.4,15.4,16.9,23.3,25.6
			c-5.3,5.3-10.5,10.6-15.6,15.8C-2167.4,401.3-2167.8,401.3-2168.2,401.3z M-2179.7,329.4c0-24-18.1-42.2-41.8-42.3
			c-23.5,0-42.8,19-42.5,41.9c0.3,23,19.1,42,41.9,42.3C-2199,371.7-2179.7,352.6-2179.7,329.4z"/>
		<path class="st4" d="M-2409.3,98.7c-7.2,2.2-11.7,7.2-14.1,14.1c0-4.7,0-9.4,0-14.1C-2418.7,98.7-2414,98.7-2409.3,98.7z"/>
		<path class="st4" d="M-2329.4,225.1c-4,24.9,3.1,47.3,19.2,66.5c-9.9,8.3-29.2,8.3-42.2-2.4c-12.1-9.9-16.6-28.2-10.3-42.9
			C-2357,232.9-2343.1,223.5-2329.4,225.1z"/>
		<path class="st4" d="M-2277.5,256.8c-14,0-27.6,0-41.7,0c0-14.5,0-28.2,0-42C-2298,213.2-2278.6,232.6-2277.5,256.8z
			 M-2282.6,252.3c-1.1-17.1-17.2-33.2-32.4-32.7c0,10.8,0,21.5,0,32.7C-2303.8,252.3-2293.3,252.3-2282.6,252.3z"/>
		<path class="st4" d="M-2300.9,293.2c-5.6-9.6-10.9-18.7-16.5-28.4c10.7,0,20.7,0,31.2,0C-2285.9,277.4-2291.3,286-2300.9,293.2z"
			/>
		<path class="st4" d="M-2298.8,130.2c4.2,0,8,0,12.2,0c0,16.3,0,32.4,0,48.9c-3.9,0-7.8,0-12.2,0
			C-2298.8,163.1-2298.8,147-2298.8,130.2z"/>
		<path class="st4" d="M-2356.2,130.6c12.9-1.9,12.9-1.9,12.9,9.8c0,12.8,0,25.5,0,38.7c-4.5,0-8.5,0-12.9,0
			C-2356.2,163.1-2356.2,147-2356.2,130.6z"/>
		<path class="st4" d="M-2372.4,179.3c-4.3,0-8,0-12.3,0c0-13.6,0-26.9,0-40.7c4,0,7.9,0,12.3,0
			C-2372.4,152-2372.4,165.3-2372.4,179.3z"/>
		<path class="st4" d="M-2328,179.1c0-9.2,0-17.6,0-26.6c4.5,0,8.8,0,13.3,0c0,9,0,17.6,0,26.6
			C-2319.1,179.1-2323.2,179.1-2328,179.1z"/>
		<path class="st4" d="M-2270.5,179c0-9,0-17.6,0-26.7c4.2,0,8.1,0,12.6,0c0,8.7,0,17.5,0,26.7C-2262,179-2265.9,179-2270.5,179z"/>
	</g>
</g>
<g>
	<g>
		<path class="st5" d="M-1663.6,113c11.1,4,16.9,13.1,20.4,23.2c5.5,16.1,9.8,32.7,14.7,49.3c8.5-2.7,18.3-6,28.2-8.8
			c13.1-3.7,26.4-6.3,40-3.1c11.9,2.8,17.2,11.5,12.5,22.8c-3.9,9.3-9.6,18.2-16.2,25.9c-8.6,10.1-18.9,18.7-28.7,28.1
			c2.7,2.4,5.7,5,8.9,7.7c-2.1,2.5-4.2,4.9-6.6,7.7c-3.8-3-7.7-6-12.1-9.5c-1,1.6-2.3,2.8-2.6,4.2c-2.9,14.5-9.6,26.7-20.7,36.6
			c-3.9,3.5-3.5,5.3,1.3,7.1c16,6.1,32.2,11.6,49.5,13.1c2.6,0.2,5.3,0.3,8,0c10.4-1.2,12.7-5.6,8.3-15.2c-0.5-1.2-1.1-2.4-1.7-3.6
			c2.6-1.9,5-3.6,7.8-5.7c4.5,6.3,6.9,13,6,20.7c-1,7.7-8.9,13.2-19.3,13.9c-19.5,1.3-37.6-4.5-55.6-10.9c-2.7-0.9-5.3-1.9-7.3-2.7
			c-3.9,14.7-7.3,29.3-11.7,43.6c-1.9,6.3-4.9,12.6-8.8,17.8c-3.7,4.7-9.3,7.9-14.1,11.8c-1.9,0-3.8,0-5.7,0
			c-10-3.5-16-11.4-19.3-20.6c-6-17-10.7-34.4-16.1-52.1c-1.7,0.6-5,1.7-8.9,3c-1.2-3.1-2.3-6.1-3.6-9.6c3.4-1.3,6.5-2.6,9.7-3.7
			c3.2-1.1,4.1-3.3,1.6-5.5c-12.1-10.6-19.6-23.6-22.3-39.5c-0.1-0.7-1.3-1.3-2.6-2.6c-5.2,4.4-10.7,8.5-15.5,13.2
			c-7.6,7.5-15,15.3-22,23.3c-2.8,3.2-5,7.2-6.7,11.2c-3.3,7.5-0.9,11.6,7.1,13c2.4,0.4,4.9,0.7,7.5,1.1c0.4,2.9,0.8,5.8,1.3,9.5
			c-4.2-0.3-8.3-0.1-12.1-0.9c-13.5-2.9-19.1-12.5-13.5-25.2c3.6-8.2,9.1-15.8,14.6-23c4.1-5.4,9.4-10,14.4-14.7
			c5-4.7,10.2-9.1,15.7-14c-5.5-4.9-11.2-9.5-16.4-14.7c-6.5-6.4-12.7-13.2-18.7-20.1c-2.7-3.1-4.9-6.8-6.9-10.5
			c-10.3-19.2-3.1-31.7,18.6-32.4c18.1-0.5,34.9,5.1,51.7,10.9c2.7,0.9,5.3,2,8.5,3.2c0.8-3.9,1.5-7.5,2.3-11.4
			c3.1,0.8,6.2,1.6,9.8,2.5c-0.4,3.4-0.8,6.9-1.3,10.4c-0.5,3.6,1.1,4.6,4.3,3.4c14.4-5.2,28.7-5.2,43.1-0.1
			c3.9,1.4,4.9-0.5,4.4-3.9c-2.7-18.7-6.4-37.2-15.2-54.1c-6.6-12.7-13.3-12.8-21-0.7c-0.4,0.6-0.9,1.2-1.3,1.9
			c-3-1.2-6-2.4-9.2-3.6c4-8.1,9.2-14.8,18-17.9C-1667.4,113-1665.5,113-1663.6,113z M-1666.1,196.5c-29.3-0.1-53.1,23.3-53.8,51.8
			c-0.9,31.1,25.1,55.3,52.3,55.2c30.1,0,54.4-23.1,54.6-52.2C-1612.9,220.5-1635.9,196.7-1666.1,196.5z M-1730.4,243.7
			c1-1.5,2.3-2.6,2.6-3.9c2.7-15,9.9-27.4,21.4-37.5c2.7-2.4,3-4.7-1.1-6.3c-16.9-6.4-34-12.3-52.3-13.6c-5.5-0.4-11.8-1-15.2,4.3
			c-3.3,5.2,0.1,10.4,3,14.8C-1761.2,218.2-1746.4,231.1-1730.4,243.7z M-1602.9,244.1c16-12.7,30.5-25.2,41.3-41.2
			c3.3-4.8,7.5-10.5,3.7-16.2c-3.6-5.6-10.4-4.5-16.3-4.1c-17.5,1.3-33.8,6.9-50,13.1c-5.2,2-5.5,3.4-1.1,7.4
			c10.5,9.6,17.1,21.3,20.2,35.1C-1604.8,239.9-1603.9,241.5-1602.9,244.1z M-1640.5,313c0.6-4.4-1-5.5-5.2-4
			c-13.8,4.9-27.6,4.8-41.4-0.1c-4.2-1.5-5.8-0.4-5.2,4c2.6,18.1,6.3,35.9,14.4,52.5c2.4,5,5.3,10.8,11.4,10.9
			c6.2,0.1,9-5.9,11.5-10.8C-1646.8,348.9-1643.4,331-1640.5,313z"/>
		<path class="st5" d="M-1737,304.5c8.1,0,14.9,7,14.7,15.1c-0.2,7.7-7.2,14.4-14.9,14.4c-7.9,0-14.9-7.3-14.7-15.2
			C-1751.6,310.8-1744.9,304.4-1737,304.5z"/>
		<path class="st5" d="M-1690.7,139.4c8.2,0.1,14.7,6.7,14.6,15c-0.2,7.9-6.7,14.3-14.7,14.5c-7.9,0.1-14.6-6.8-14.5-15.1
			C-1705.2,145.7-1698.7,139.3-1690.7,139.4z"/>
		<path class="st5" d="M-1571.4,262c8.2,0.1,14.7,6.8,14.5,15c-0.2,7.8-7.1,14.5-14.8,14.4c-8.1-0.1-14.7-7-14.5-15.2
			C-1586.1,268.3-1579.4,261.9-1571.4,262z"/>
		<path class="st5" d="M-1666.6,242c-7.9-2.5-15.8-4.1-22.8-7.6c-7.4-3.6-7.1-10-0.4-14.7c11.1-7.8,35.2-7.9,46.4-0.2
			c7.1,4.8,7.4,11.4-0.3,15C-1650.7,238-1658.6,239.5-1666.6,242z"/>
		<path class="st5" d="M-1694.1,266.9c14.1,12.9,41.3,12.7,55.1,0c1.7,7.8,0.3,11.5-6.5,14.6c-12.9,5.8-26.1,6.5-39.4,1.7
			C-1693.3,280.1-1695.2,276.6-1694.1,266.9z"/>
		<path class="st5" d="M-1694.1,252c12.3,12.6,45.2,12.1,55.2,0.4c1.7,8.2,0.4,11.6-7.2,14.7c-13.2,5.4-26.7,5.6-40,0.2
			C-1693.6,264.2-1695.3,260.2-1694.1,252z"/>
		<path class="st5" d="M-1694.2,237.2c12.6,12.5,45.2,11.7,55.3,0.4c1.6,8.3,0.2,11.5-7.5,14.4c-13.3,5-26.8,5.5-40-0.1
			C-1693.9,248.8-1695.3,245.5-1694.2,237.2z"/>
	</g>
</g>
<g>
	<path d="M-1034,254c0.8,0,1.6,0,2.4,0"/>
	<path d="M-1153.2,306.5c0.5,0.3,1,0.6,1.5,1C-1152.3,307.1-1152.8,306.8-1153.2,306.5z"/>
	<path d="M-1149.5,307.6c0,0.4,0,0.8,0,1.2c-0.5-0.3-1.1-0.7-1.6-1C-1150.6,307.7-1150,307.6-1149.5,307.6z"/>
	<path d="M-1062.1,374.7"/>
	<path d="M-1105.1,180.5c0.4-0.5,0.8-0.5,1.1,0C-1104.4,180.5-1104.7,180.5-1105.1,180.5z"/>
	<path d="M-986.3,156c-0.1-0.3-0.3-0.5-0.3-0.8c0-0.1,0.2-0.2,0.3-0.3C-986.1,155.3-986.1,155.6-986.3,156z"/>
</g>
<g>
	<path class="st1" d="M-956.9,184.8l-0.1,0h-17c-0.2,4.6-0.5,14.3-0.5,34.2c0,9.9-3.2,18-9.5,24c-12.4,11.9-32.4,11.5-34.2,11.4
		h-63.6c-9.2,0-16.1,2.5-20.7,7.3c-6.9,7.4-6.2,18.3-6.2,18.4l0,0.3v35.1h0l0,36.1c0,0.3-0.2,8.1,7.3,15.6
		c7,7.1,22.4,15.3,55.8,14.3l0.1,0c0.1,0,0.2,0,0.2,0c34.5,0,49.5-8.5,56-15.7c6.3-7,5.8-13.7,5.7-14l0-0.3l0-0.2v-28.1h-60.3v-9
		h87.1l0.3,0c0.4,0.1,11.2,1.2,21.4-7.6c11.4-9.9,17.8-29,18.4-55.3c0.6-25.8-4.9-44.7-16.2-56
		C-943.9,184.6-956.4,184.8-956.9,184.8z"/>
	<path class="st1" d="M-1117.8,280.7c-0.1-1.9-0.5-15.1,8.5-24.9c6.3-6.8,15.5-10.3,27.3-10.3l63.9,0c0.2,0,17.8,0.6,27.7-9
		c4.5-4.4,6.7-10.1,6.7-17.5c0-29.3,0.6-37.1,0.8-39v-26.2c0-6.3-5.5-22-21.9-28c-19.1-6.9-39.8-7.5-45.7-7.5c-0.9,0-1.9,0-2.9,0
		c-9.5-0.1-21.4-0.1-35,5l-0.2,0.1c-24.2,7.7-22.6,29-22.6,30l0,0.4v24.5h60.7v9h-56.5l-32.3,0.4c-1.5,0.1-39.9,2.2-39.2,65.1
		c0.3,24.5,6,42.2,17.1,52.5c10.4,9.7,21.7,9.2,21.8,9.2l0.2,0h21.5V280.7z"/>
	<path class="st6" d="M-926.8,188.9c-13.3-13.2-28.8-13.2-30.3-13.2h-16.6v-22c0-10.9-8.6-29.4-27.8-36.4c-19.9-7.2-40.8-8-48.8-8
		c-0.9,0-1.9,0-2.9,0c-9.7-0.1-23-0.2-38.2,5.6c-24.7,7.9-29.6,28.9-28.7,39.1v24.4l-19.3,0.2c-0.5,0-12.8,0.5-24.8,10.2
		c-10.8,8.7-23.6,26.9-23.2,64.1c0.3,27.1,7,46.9,19.9,59c12.6,11.8,26.5,11.7,28.3,11.6h21.4v27.9c0,1.5,0,12.2,9.7,22
		c11.2,11.5,30.4,17.3,57,17.3c1.8,0,3.7,0,5.6-0.1c0.1,0,0.1,0,0.2,0c30.6,0,51.8-6.4,62.9-18.9c8.1-9.1,7.9-18.5,7.8-20.4v-27.9
		h17.3c0.4,0,1.3,0.1,2.4,0.1c4.9,0,15.5-1.1,25.5-9.7c13.7-11.8,21-32.6,21.7-62C-907.1,223.2-913.5,202.1-926.8,188.9z
		 M-1139.3,314.5l-0.2,0c-0.1,0-11.4,0.5-21.8-9.2c-11-10.3-16.8-28-17.1-52.5c-0.7-62.9,37.6-65.1,39.2-65.1l32.3-0.4h56.5v-9
		h-60.7v-24.5l0-0.4c-0.1-0.9-1.6-22.2,22.6-30l0.2-0.1c13.6-5.2,25.5-5.1,35-5c1,0,2,0,2.9,0c5.9,0,26.7,0.5,45.7,7.5
		c16.4,6,21.9,21.7,21.9,28V180c-0.2,1.9-0.8,9.7-0.8,39c0,7.4-2.2,13.1-6.7,17.5c-9.9,9.5-27.6,9-27.7,9l-63.9,0
		c-11.8,0-21,3.5-27.3,10.3c-9.1,9.8-8.7,23-8.5,24.9v33.8H-1139.3z M-916.7,251.5c-0.6,26.2-6.9,45.3-18.4,55.3
		c-10.2,8.8-20.9,7.7-21.4,7.6l-0.3,0h-87.1v9h60.3v28.1l0,0.2l0,0.3c0,0.3,0.6,7.1-5.7,14c-6.5,7.2-21.5,15.7-56,15.7
		c-0.1,0-0.2,0-0.2,0l-0.1,0c-33.4,1-48.7-7.2-55.8-14.3c-7.5-7.6-7.3-15.4-7.3-15.6l0-36.1h0v-35.1l0-0.3c0-0.1-0.7-11,6.2-18.4
		c4.5-4.9,11.5-7.3,20.7-7.3h63.6c1.8,0.1,21.8,0.4,34.2-11.4c6.3-6.1,9.5-14.2,9.5-24c0-19.9,0.3-29.7,0.5-34.2h17l0.1,0
		c0.5,0,13-0.2,24,10.7C-921.6,206.8-916.2,225.7-916.7,251.5z"/>
	<path class="st7" d="M-1117.8,323.5l9,0c0,0,0-12,0-41.8c0-29.9,26.9-27.2,26.9-27.2h58.6c53.1,0.2,48.8-35.5,48.8-35.5l0.8-43.2
		v-22c0-10.9-8.6-29.4-27.8-36.4c-19.9-7.2-40.8-8-48.8-8c-0.9,0-1.9,0-2.9,0c-9.7-0.1-23-0.2-38.2,5.6
		c-24.7,7.9-29.6,28.9-28.7,39.1v24.4l-19.3,0.2c-0.5,0-12.8,0.5-24.8,10.2c-10.8,8.7-23.6,26.9-23.2,64.1c0.3,27.1,7,46.9,19.9,59
		c12.6,11.8,26.5,11.7,28.3,11.6H-1117.8v-9.7 M-1139.3,314.5l-0.2,0c-0.1,0-11.4,0.5-21.8-9.2c-11-10.3-16.8-28-17.1-52.5
		c-0.7-62.9,37.6-65.1,39.2-65.1l32.3-0.4h56.5v-9h-60.7v-24.5l0-0.4c-0.1-0.9-1.6-22.2,22.6-30l0.2-0.1c13.6-5.2,25.5-5.1,35-5
		c1,0,2,0,2.9,0c5.9,0,26.7,0.5,45.7,7.5c16.4,6,21.9,21.7,21.9,28V180c-0.2,1.9-0.8,9.7-0.8,39c0,7.4-2.2,13.1-6.7,17.5
		c-9.9,9.5-27.6,9-27.7,9l-63.9,0c-11.8,0-21,3.5-27.3,10.3c-9.1,9.8-8.7,23-8.5,24.9v33.8H-1139.3z"/>
</g>
<g>
	<g>
		<path class="st8" d="M-374.8,359.5c3.3,8.3,6.4,16.3,9.8,24.1c0.3,0.7,2,1.1,3.1,1.1c8,0.1,16.1,0,24.1,0.1c3.7,0,5.9,1.7,5.7,4.6
			c-0.3,3.4-2.5,4.3-5.6,4.3c-48.5,0-96.9,0-145.4,0c-3.1,0-5.4-0.8-5.6-4.3c-0.2-3,1.8-4.6,5.6-4.6c8.3,0,16.6,0,24.8-0.1
			c1.1,0,2.7-0.7,3.1-1.5c3.3-7.7,6.4-15.5,9.6-23.6c-1.2-0.1-2.1-0.3-3-0.3c-29,0-58,0-86.9,0c-14.2,0-23.6-9.2-23.7-23.4
			c-0.1-31.4,0-62.8-0.2-94.3c0-1.8-0.9-4-2.2-5.3c-13-14-13-34,0.1-48.2c1-1.1,1.6-2.9,1.8-4.4c0.4-4,0-8.1,0.6-12
			c1.7-11,10.7-18.6,21.8-18.7c4.6-0.1,9.3-0.1,13.9,0.1c2.2,0.1,3.5-0.6,4.8-2.5c5-7.8,10.2-15.4,15.2-23.2c0.7-1.1,0.8-2.6,1-4
			c0.2-1.5,0.1-3.2,0.5-4.7c1.8-6.8,15-14.5,21.6-12c2.8,1.1,5.7,3.4,7.4,6c4.5,6.9,8.4,14.3,12.6,21.4c0.6,1,1.8,2.3,2.8,2.2
			c10.5-0.2,17.7,5.3,23.3,13.4c1.5,2.2,3,2.9,5.6,2.9c47.4-0.1,94.7-0.1,142.1-0.1c15.4,0,24.9,9.4,24.9,24.7
			c0,35.9-0.1,71.9-0.1,107.8c0,16.7-0.2,33.4,0.2,50c0.3,15.8-12,24.6-24.4,24.4c-28.5-0.5-57-0.2-85.5-0.1
			C-372.4,359.3-373.4,359.4-374.8,359.5z M-291,182.6c-47.3,0-94,0-141.3,0c0.9,1.6,1.5,2.8,2.2,3.9c3.9,6.7,7.8,13.4,11.6,20.2
			c3.3,5.9,2.8,10.2-2.2,14.7c-3.1,2.7-6.6,4.9-10.3,6.8c-3.8,2-7.7,1.3-11.4-1.2c-1.1-0.7-2.6-1.3-3.9-1.2
			c-15.4,0.8-30.8,1.7-46.2,2.8c-2.5,0.2-4.8,1.5-7.6,2.4c5.9,10.2,11.6,19.6,16.9,29.2c2.7,4.9,5.3,9.5,11.9,9.3
			c0.3,0,0.8,0.2,1,0.4c1.5,1.6,3.6,3,4.3,4.9c0.9,2.6-1.4,4-3.5,5.3c-8.5,4.9-17,9.9-25.6,14.8c-4.4,2.6-6.3,2.1-8.9-2.3
			c-7.7-13.2-15.4-26.5-23.2-39.7c-0.6-1.1-1.3-2.1-2.4-3.8c0,23.2,0,45.5,0,68.1c79.6,0,159,0,238.5,0
			C-291,272.2-291,227.5-291,182.6z M-270.7,326.5c-93.3,0-186.2,0-279.3,0c0,3.7,0,7.1,0,10.5c0.1,7.7,5.7,13.4,13.3,13.5
			c10.5,0.1,20.9,0.1,31.4,0.1c44.8,0,89.6-0.1,134.4-0.1c28.8,0,57.7,0,86.5,0c7.6,0,13-4.9,13.6-12.3
			C-270.5,334.4-270.7,330.6-270.7,326.5z M-270.6,317.1c0-1.6,0-3.1,0-4.5c0-38,0-76,0-113.9c0-7.5,0.1-15.1-0.1-22.6
			c-0.2-9-5.6-14.1-14.5-14.1c-46.4,0-92.7,0-139.1,0c-1.3,0-2.6,0-3.7,0c0,4,0,7.6,0,11.5c1.9,0,3.5,0,5,0c44.3,0,88.6,0,132.9,0
			c6.4,0,8.1,1.7,8.1,7.9c0,43.7,0,87.4,0.1,131.1c0,1.5,0.2,3.1,0.3,4.7C-277.8,317.1-274.5,317.1-270.6,317.1z M-497.1,134.3
			c-0.8,1.1-1.4,1.9-2,2.8c-7,10.8-14,21.7-21.1,32.4c-1.4,2.1-1.5,3.7-0.2,5.9c8.2,14,16.3,28.2,24.6,42.2c0.6,1,2.4,2,3.7,2
			c7.8-0.2,15.6-0.7,23.3-1.2c6.4-0.3,12.7-0.7,19.7-1C-465.2,189.4-481.1,161.9-497.1,134.3z M-502.8,222.8
			c-8.8-15.1-17.3-29.8-26-44.7c-7.8,4.6-15.3,8.7-22.4,13.2c-6.9,4.4-10.5,10.9-10.8,19.2c-0.8,20.2,19.3,33.9,36.9,25.1
			C-517.6,231.8-510.5,227.2-502.8,222.8z M-425.7,212.3c-0.3-0.7-0.7-2-1.3-3.2c-1.6-3-3.4-5.9-5.1-8.8
			c-15.7-27.1-31.4-54.2-47.2-81.3c-0.8-1.4-2.1-3.1-3.4-3.3c-3.6-0.7-6.6,1.1-8.9,3.8c-2.1,2.5-1.2,4.8,0.3,7.3
			c13.9,23.8,27.7,47.7,41.5,71.6c3.5,6,6.9,12,10.5,17.9c1.9,3.1,4.8,4.1,8.2,3C-428.1,218.4-425.9,216.4-425.7,212.3z
			 M-445.8,384.6c24.2,0,47.6,0,71.5,0c-3.3-8.2-6.4-16.1-9.7-23.9c-0.3-0.7-1.6-1.3-2.5-1.3c-15.7-0.1-31.4-0.1-47.1,0
			c-0.9,0-2.2,0.7-2.5,1.4C-439.4,368.6-442.5,376.4-445.8,384.6z M-522,244.1c8.1,14,16.1,27.8,24.2,41.9c5.5-3.2,10.8-6.2,15.8-9
			c-1.7-2-3.4-3.5-4.5-5.3c-3.5-5.8-6.9-11.7-10.3-17.6c-3.5-6.1-7.1-12.1-10.8-18.4C-512.5,238.6-517.1,241.3-522,244.1z
			 M-539.1,317.1c0-23.6,0-46.9,0-70.1c-3.7-0.9-7.2-1.7-10.7-2.5c0,24.3,0,48.4,0,72.6C-546.2,317.1-542.9,317.1-539.1,317.1z
			 M-526.6,162.4c-16.6-2.7-27.3,5.5-23.3,18.2C-542.2,174.3-531,173-526.6,162.4z M-453.8,145.4c5.5,9.5,10.8,18.6,16.4,28.3
			C-433.8,162.9-444.3,146.6-453.8,145.4z"/>
		<path class="st8" d="M-357.3,231.1c13.8,0,27.5,0,41.3,0c5.3,0,6.4,1.1,6.4,6.4c0,20.6,0,41.2,0,61.7c0,5.1-1.4,6.4-6.5,6.4
			c-27.6,0-55.3,0-82.9,0c-5.3,0-6.6-1.3-6.6-6.7c0-20.5,0-40.9,0-61.4c0-5.4,1.1-6.5,6.4-6.5C-385.3,231.1-371.3,231.1-357.3,231.1
			z M-396.5,296.7c26.2,0,52,0,77.7,0c0-19,0-37.7,0-56.3c-26.1,0-51.8,0-77.7,0C-396.5,259.1-396.5,277.7-396.5,296.7z"/>
		<path class="st8" d="M-357.6,190.2c10.8,0,21.6,0,32.4,0c4,0,5.9,1.5,5.9,4.3c0.1,3.1-1.9,4.7-6,4.7c-21.6,0-43.3,0-64.9,0
			c-4,0-5.8-1.4-5.8-4.4c-0.1-3.2,1.6-4.6,5.9-4.6C-379.2,190.2-368.4,190.2-357.6,190.2z"/>
		<path class="st8" d="M-357.9,219.1c-10.8,0-21.7,0-32.5,0c-4.1,0-5.7-1.4-5.6-4.5c0.2-3.5,2.5-4.4,5.5-4.4c21.9,0,43.8,0,65.7,0
			c2.9,0,5,1,5.5,4.1c0.4,2.9-1.7,4.8-5.4,4.8C-335.7,219.2-346.8,219.1-357.9,219.1C-357.9,219.1-357.9,219.1-357.9,219.1z"/>
		<path class="st8" d="M-376.2,268.3c0-5.1-0.1-10.2,0-15.3c0.1-4.6,3.3-6.6,7.4-4.3c8.9,4.9,17.8,10,26.6,15.1
			c4.6,2.7,4.6,5.8,0.1,8.5c-8.7,5.1-17.4,10.1-26.3,15c-5.6,3.1-7.8,1.6-7.8-4.7c0-2.4,0-4.9,0-7.3
			C-376.2,272.9-376.2,270.6-376.2,268.3z M-367.3,277c5.2-2.9,9.9-5.6,15.1-8.6c-5.3-3.1-10-5.8-15.1-8.7
			C-367.3,265.7-367.3,270.9-367.3,277z"/>
	</g>
</g>
<g>
	<path class="st9" d="M287.1,319.6c2.4,7.5,4.7,14.5,6.9,21.6c1.8,5.7-0.1,8.3-6.1,8.3c-36.8,0-73.5,0-110.3,0c-1,0-2.1-0.1-3.1,0.1
		c-2.7,0.6-4.2,2.2-4.2,5c0,2.6,1.6,4.2,4.1,4.8c1,0.2,2.1,0.1,3.1,0.1c36.5,0,72.9,0,109.4,0c1,0,2.1-0.1,3.1,0
		c2.7,0.3,4.6,2.4,4.5,5c0,2.6-2,4.6-4.7,4.8c-0.4,0-0.8,0-1.2,0c-37.8,0-75.6,0-113.4,0c-6.4,0-12-4-14-9.9
		c-2-5.8-0.3-12.4,4.5-16.3c2.8-2.3,6-3.5,9.7-3.5c9.7,0,19.5,0,29.2,0.1c1.9,0,2.7-0.5,3.3-2.4c1.8-5.8,3.8-11.5,5.8-17.6
		c-1.6,0-2.7,0-3.8,0c-27.7,0-55.3,0-83,0c-10.2,0-16.2-6-16.2-16.2c0-58.8,0-117.7,0-176.5c0-10,6.1-16.1,16-16.1
		c82.1,0,164.3,0,246.4,0c9.8,0,15.9,6.1,15.9,15.9c0,20.9,0,41.9,0,62.8c0,2.4-0.5,4.6-2.9,5.2c-1.6,0.4-4,0.2-5-0.8
		c-1.2-1.1-1.8-3.4-1.8-5.2c-0.1-20.2-0.1-40.4-0.1-60.6c0-6.1-1.3-7.4-7.5-7.4c-81.2,0-162.4,0-243.6,0c-6.1,0-7.5,1.3-7.5,7.4
		c0,49.3,0,98.6,0,147.9c0,1.1,0,2.3,0,3.8c1.4,0,2.6,0,3.8,0c47.3,0,94.7,0,142,0c0.7,0,1.5,0,2.2,0c3.9,0,6.2,1.9,6.2,5
		c0,3.1-2.3,4.9-6.3,4.9c-47.7,0-95.5,0-143.2,0c-1.3,0-2.7,0-4.4,0c0,5.4-0.3,10.8,0.2,16.1c0.1,1.4,2.6,2.7,4.3,3.7
		c0.8,0.5,2,0.1,3.1,0.1c52.8,0,105.6,0,158.5,0c1,0,2.1-0.1,3.1,0c2.9,0.3,4.8,2.4,4.7,5.2c-0.1,2.6-2,4.5-4.8,4.7
		C289,319.6,288.3,319.6,287.1,319.6z M282.9,339.4c-2-6.3-3.8-12.4-5.8-18.5c-0.2-0.6-1.5-1.3-2.3-1.3c-16.2-0.1-32.5-0.1-48.7,0
		c-0.7,0-1.9,0.5-2.1,1.1c-2.2,6.1-4.1,12.3-6.2,18.6C239.5,339.4,261,339.4,282.9,339.4z"/>
	<path class="st9" d="M304.6,349.3c0-8,0-15.9,0-23.9c0-6.3,2.7-10.8,8.1-14c0.9-0.5,1.7-1.9,1.8-3c0.2-3.2,1.2-7.1-0.3-9.4
		c-1.3-2.2-5.3-2.8-8.1-4c-22.9-9.9-37.1-32.5-36.2-57.5c1.1-28.6,23.6-53.1,52.1-56.4c37.8-4.4,69.6,25.8,67.1,63.7
		c-1.6,23.5-18.2,44.7-40.9,52c-3.1,1-4.3,2.3-3.7,5.4c0.1,0.7,0.1,1.5,0,2.2c-0.4,3.8,0,6.8,4.1,9c4.2,2.3,5.8,6.8,5.8,11.7
		c0,16.5,0,32.9,0,49.4c0,8.5-6.4,14.9-14.9,15c-6.6,0.1-13.3,0.1-19.9,0c-8.3-0.1-14.8-6.5-14.8-14.8
		C304.6,366,304.6,357.6,304.6,349.3z M329.5,289.7c27.4-0.2,49.7-22.5,49.6-49.7c-0.1-27.5-22.5-49.7-50-49.6
		c-27.2,0.1-49.5,22.8-49.3,50.3C280,267.6,302.6,289.8,329.5,289.7z M314.6,349.2c0,8.1,0,16.1,0,24.2c0,3.9,1.9,5.7,5.7,5.8
		c6.1,0,12.2,0,18.3,0c3.8,0,5.7-1.9,5.7-5.8c0-15.9,0-31.9,0-47.8c0-4.1-1.8-5.9-5.8-5.9c-6,0-12,0-18,0c-4,0-5.8,1.8-5.8,5.9
		C314.6,333.5,314.6,341.3,314.6,349.2z M334.3,299.9c-3.3,0-6.4,0-9.6,0c0,3.3,0,6.5,0,9.6c3.4,0,6.5,0,9.6,0
		C334.3,306.1,334.3,303.1,334.3,299.9z"/>
	<path class="st9" d="M204.4,218.2c17.7-17.7,35.1-35.1,52.7-52.7c-3.6,0-7.2,0-10.7,0c-4.1,0-6.5-1.9-6.4-5.1
		c0.1-3.1,2.4-4.8,6.4-4.8c7.5,0,14.9,0,22.4,0c4.2,0,6,1.8,6,6.1c0,7.6,0,15.1,0,22.7c0,3.7-1.9,5.9-4.9,6c-3,0-4.9-2.2-5-5.9
		c0-3.7,0-7.4,0-11.7c-1.2,1.1-2.1,1.8-2.8,2.6c-17.2,17.2-34.4,34.4-51.6,51.6c-4.1,4.1-5.6,4.2-10.3,0.5
		c-6.3-5-12.6-10.1-19.2-15.4c-3.4,3.8-6.9,7.6-10.3,11.5c-8.6,9.7-17.1,19.4-25.9,28.9c-1.2,1.3-3.6,2.2-5.3,2.2
		c-1.3-0.1-3.2-2-3.5-3.3c-0.3-1.6,0.4-4,1.6-5.2c10.1-11.6,20.3-23,30.5-34.4c2.6-2.9,5.2-5.9,7.8-8.8c2.8-3.1,5-3.3,8.3-0.7
		C191,207.4,197.8,212.9,204.4,218.2z"/>
	<path class="st9" d="M389.3,298.1c-0.3,3.5-0.1,7.1-0.9,10.5c-1.5,6.6-7.3,10.9-14,11c-1.9,0-3.7,0.1-5.6,0
		c-2.7-0.2-4.3-1.9-4.5-4.6c-0.2-2.6,1.6-4.9,4.3-5.2c1.7-0.2,3.5,0,5.3-0.1c3.3-0.1,5.2-2,5.2-5.3c0.1-4.6,0-9.1,0-13.7
		c0-3.7,1.9-5.8,4.9-5.9c3,0,4.9,2.1,5,5.8c0,2.5,0,5,0,7.4C389.1,298.1,389.2,298.1,389.3,298.1z"/>
	<path class="st9" d="M369.3,241.9c-0.4,20.2-18.7,38.1-38.9,38c-3.7,0-5.9-1.8-6-4.8c-0.1-3.2,2-5.1,5.8-5.3
		c16-1,27.8-12.5,28.9-28.3c0.3-4.5,2-6.6,5.3-6.5C367.7,235.1,369.4,237.4,369.3,241.9z"/>
</g>
<g>
	<polygon class="st10" points="737.9,-1371.7 978.4,-1371.7 957.8,-1127.9 858.1,-1099.1 757.6,-1126.3 	"/>
	<polygon class="st11" points="858.1,-1352.5 858.1,-1117.9 936.8,-1141.4 954.5,-1352.5 	"/>
	<polygon class="st12" points="822,-1321.5 847.7,-1321.5 847.7,-1151.8 775.3,-1172 775.3,-1198.8 822,-1186.8 	"/>
	<polygon class="st12" points="868,-1321.5 942.5,-1321.5 939.7,-1294.3 893.9,-1294.3 893.1,-1248.4 937.2,-1255.6 929.4,-1169.1 
		868,-1151.8 868,-1179.4 906.3,-1190.5 910.8,-1226.6 868,-1218.5 	"/>
</g>
<g>
	<polygon class="st13" points="1321.9,-1383.5 1583.1,-1383.5 1560.8,-1118.7 1452.5,-1087.3 1343.3,-1116.9 	"/>
	<polygon class="st11" points="1452.5,-1361.6 1452.5,-1108.8 1537.9,-1134.3 1557.2,-1361.6 	"/>
	<polygon class="st14" points="1414,-1328.9 1441.1,-1328.9 1441.1,-1144.6 1362.6,-1166.5 1362.6,-1195.6 1413.2,-1182.6 	"/>
	<polygon class="st14" points="1463.2,-1328.9 1544.2,-1328.9 1541.1,-1299.4 1491.4,-1299.4 1490.5,-1249.5 1538.4,-1257.3 
		1529.9,-1163.4 1463.2,-1144.6 1463.2,-1174.6 1504.8,-1186.7 1509.8,-1225.8 1463.2,-1217.1 	"/>
</g>
<polygon class="st15" points="2202.1,109.8 2078.5,150.5 2090,239.7 2202.1,239.7 "/>
<polygon class="st16" points="2222.1,109.2 2346.5,149.9 2333,239.1 2222.1,239.1 "/>
<polygon class="st17" points="2201.4,260.5 2093.9,260.5 2105.4,337 2201.4,388 "/>
<polygon class="st18" points="2221.4,260.5 2328.9,260.5 2318.3,336.3 2221.4,389.3 "/>
<polygon class="st19" points="1573.4,109.8 1449.9,150.5 1461.4,239.7 1573.4,239.7 "/>
<polygon class="st20" points="1593.4,109.2 1717.8,149.9 1704.3,239.1 1593.4,239.1 "/>
<polygon class="st21" points="1572.8,260.5 1465.2,260.5 1476.7,337 1572.8,388 "/>
<polygon class="st22" points="1592.7,260.5 1700.2,260.5 1689.7,336.3 1592.7,389.3 "/>
<g>
	<path class="st23" d="M922.7,101.4c4.8,6.9,5.3,14.7,5.1,22.6c-0.2,14.3-6.6,25.8-16.8,35.5c-9.5,9.1-19.1,18.1-28.2,27.6
		c-18.8,19.6-19.9,28.9-6.7,52.8c1.9,3.5,4,6.8,6.1,10.2c0.9,1.4,2.1,2.7,1.2,5c-9.8-10.4-19.4-20.9-26.7-33.1
		c-7.2-11.9-6.7-18.7,1.7-29.9c5.8-7.8,13.2-14.2,20.5-20.5c6.3-5.4,12.6-10.8,19.1-15.9C915.8,141.9,925.9,124.7,922.7,101.4z"/>
	<path class="st24" d="M819.7,354c-5,1.8-10.3,2.7-15,5.2c-2.1,1.1-4.8,2.3-4.6,5.1c0.2,2.5,2.9,3.2,5,3.9c9.4,3.1,19.2,4,29,5
		c38.2,4,76.3,1.3,114.3-2.2c10.1-0.9,20.2-2.5,29.8-6.2c3.8-1.5,7.5-3.3,6.2-8.8c4.4,3.7,4.4,5.9-0.3,9.3c-8.3,6-18,8.6-27.7,10.9
		c-16.2,3.9-32.7,5.2-49.3,6c-31.8,1.5-63.6,1.6-95.3-1.9c-8.4-0.9-16.8-2.1-24.7-5.3c-2.5-1-5.5-2-5.9-5.3
		c-0.4-3.5,2.1-5.7,4.7-7.5C793,357.3,809.8,353.1,819.7,354z"/>
	<path class="st25" d="M952.4,163.5c-10.2,6.7-20.2,13.2-29.1,21.1c-4.1,3.7-8,7.7-11,12.3c-4.3,6.5-4.8,13.1-0.6,19.9
		c2.8,4.5,5.8,9,8.4,13.6c7.8,13.6,6.4,22.3-5.1,33.1c-2.5,2.3-5.3,4.4-8,6.5c-0.5,0.4-1.2,0.4-2.8,1c1.8-3.2,3.2-5.6,4.5-8
		c3-5.3,3-10.6-0.2-15.7c-2.9-4.7-6.2-9.2-9.3-13.7c-11-16.1-9.5-32.1,4.5-45.7c12.9-12.6,29.1-19.4,45.8-25.2
		C950.4,162.4,951.3,162.2,952.4,163.5z"/>
	<path class="st26" d="M937.8,344.9c-20.6,6.9-40.8,11-62,9.1c-6.5-0.6-13.1-0.9-19.5-2.5c-2.7-0.7-5.4-1.2-8-2.2
		c-4.6-1.8-10.6-3.2-10.4-9.3c0.2-6,6.1-7.1,11.3-9.2c-1.1,6.4,3,7.7,7.7,8.2c19.5,2,38.9,1.5,58.2-1.7c4.7-0.8,8.6-0.9,12.6,2.1
		C930.5,341.6,934,342.9,937.8,344.9z"/>
	<path class="st27" d="M941.7,312.8c-12.3,4.3-24.8,7.1-37.5,8c-21.6,1.5-43.2,1.3-64.4-3.6c-1.8-0.4-3.6-1.1-5.4-1.8
		c-3.4-1.4-6.3-3.2-5.2-7.6c0.9-3.5,7.5-8.6,10.5-8.3c1.8,0.2,1.8,1.2,1.5,2.5c-0.9,3.4,1.3,4.8,3.8,5.8c3.6,1.4,7.3,2,11.1,2.2
		c23.2,1.1,46.3-0.1,69.2-4c3.4-0.6,6.4-0.3,9.1,2.2C936.4,309.9,939,311.1,941.7,312.8z"/>
	<path class="st24" d="M851.2,264.6c-7.5,2.6-13.7,4.1-19.3,7.1c-2.1,1.1-5.1,2.1-4.8,4.9c0.3,2.9,3.5,2.8,5.8,3.3
		c7.1,1.3,14.4,1.8,21.6,2.1c32.4,1,64.5-1.9,96.4-7.1c0.5-0.1,1,0,2.1,0c-6.1,5.2-12.5,8-20.1,9c-32.7,4.5-65.5,7.4-98.6,4.1
		c-8.6-0.8-17.2-1.5-25.4-4.3c-1.6-0.5-3.5-1.1-3.8-3.1c-0.3-2,1.5-3,2.8-4C815.6,271.1,840.3,264,851.2,264.6z"/>
	<path class="st28" d="M828.4,391.4c6.3-1.4,11.6-0.5,16.9-0.2c37.5,2.7,74.9,3.3,112.1-3.5c13.3-2.4,26.2-6.1,37.9-13.2
		c1.1-0.7,2.5-2.2,3.6-0.7c0.9,1.4-0.8,2.5-1.7,3.3c-5.3,5.1-11.9,8.2-18.7,10.7c-15.9,5.8-32.6,7.5-49.2,9.1
		c-18.4,1.8-36.9,2.2-55.4,1.2C858.7,397.2,843.9,395.5,828.4,391.4z"/>
	<path class="st24" d="M963.3,264.4c12-6.4,26-3.9,33.6,5.3c5.1,6.2,5.8,13.1,2.8,20.4c-2,4.9-5.4,8.8-9.4,12.2
		c-9.3,7.9-20.2,12.9-32.1,15.7c5.7-4.5,11.9-8.4,17.2-13.3c4.4-4.1,8.6-8.4,11.4-13.9c6.8-13.5,0-25.3-15-26.3
		C969.4,264.2,967,264.4,963.3,264.4z"/>
</g>
<circle class="st7" cx="-1081.6" cy="154.6" r="11.1"/>
<circle class="st6" cx="-1012.6" cy="345.3" r="11.1"/>
</svg>
