<?xml version="1.0" encoding="utf-8"?>
<!-- Generator: Adobe Illustrator 25.2.1, SVG Export Plug-In . SVG Version: 6.00 Build 0)  -->
<svg version="1.1" id="Layer_1" xmlns="http://www.w3.org/2000/svg" xmlns:xlink="http://www.w3.org/1999/xlink" x="0px" y="0px" width="24" height="21"
	 viewBox="0 0 24 21" style="enable-background:new 0 0 24 21;" xml:space="preserve">
<style type="text/css">
	.st0{fill:#46E5C9;}
</style>
<image style="overflow:visible;" width="260" height="280" xlink:href="649CCD3A.jpg"  transform="matrix(1 0 0 1 981.5958 -223.2979)">
</image>
<g>
	<g>
		<path class="st0" d="M3.6,17.8c0-0.5,0-1.1,0-1.7c0-2.6,0-5.3,0-7.9C3.6,7.2,4.1,6.9,5,7c0,0.2,0,0.3,0,0.5
			C4.3,7.5,4.2,7.9,4.2,8.5c0,2.9,0,5.7,0,8.6c0,0.9,0,0.9,0.9,0.9c1.7,0,3.3,0,5,0c0.3,0,0.6,0,0.8,0.4c0,0.1,0.3,0.2,0.5,0.2
			c0.7,0,1.4,0,2,0c0.2,0,0.4-0.1,0.5-0.2c0.1-0.5,0.5-0.5,0.9-0.5c1.7,0,3.4,0,5.1,0c0.5,0,0.7-0.2,0.7-0.7c0-3,0-6,0-9
			c0-0.6-0.3-0.7-0.8-0.7c0-0.2,0-0.3,0-0.5C20,6.8,20.8,7,21,7.4c0.1,0.3,0.2,0.6,0.2,0.9c0,3,0,6,0,9c0,0.2,0,0.4,0,0.6
			c0.2,0,0.5,0,0.6,0.1c0.2,0.1,0.5,0.2,0.5,0.3c0,0.5,0.1,1.1,0,1.6c-0.1,0.4-0.6,0.6-1.1,0.6c-5.9,0-11.7,0-17.6,0
			c-0.5,0-0.9-0.2-1.1-0.6c-0.1-0.5-0.2-1.1,0-1.6C2.6,18,3.2,17.9,3.6,17.8z M3,18.6c-0.1,1.2,0,1.2,1.1,1.2c5.5,0,11.1,0,16.6,0
			c1,0,1.1-0.2,1-1.2c0,0,0,0,0,0c-2.3,0-4.6,0-6.8,0c-0.1,0-0.3,0.1-0.4,0.2c-0.3,0.4-0.7,0.5-1.2,0.5c-0.6,0-1.2,0-1.8,0
			c-0.5,0-0.9-0.1-1.2-0.5c-0.1-0.1-0.4-0.2-0.6-0.2c-1.4,0-2.8,0-4.1,0C4.7,18.6,3.9,18.6,3,18.6z"/>
		<path class="st0" d="M8.3,1.7C8.7,2,9,2.2,9.2,2.4c0.3,0.2,0.6,0.4,0.9,0.1c0.1-0.1,0.2-0.1,0.3-0.1c0.7-0.1,0.8-0.5,0.9-1.1
			c0-0.3,0.1-0.8,0.3-0.8c0.5-0.1,1.1-0.1,1.6,0c0.1,0,0.2,0.5,0.3,0.8c0.1,0.3,0.1,0.7,0.2,0.8c0.4,0.3,0.9,0.5,1.4,0.6
			c0.3,0,0.6-0.3,0.8-0.5c0.4-0.3,0.7-0.4,1.1,0.1c0,0,0.1,0.1,0.1,0.1c0.8,0.9,0.9,0.6,0.1,1.6C16.9,4.3,16.9,4.5,17,5
			c0.2,0.9,0.8,1.1,1.6,1.1c0.4,0,0.6,0.2,0.5,0.6c0,0.1,0,0.1,0,0.2c0,1.3,0.2,1.1-1.1,1.3c-0.4,0.1-0.7,0.2-0.8,0.6
			c0,0.2-0.1,0.4-0.2,0.6c-0.2,0.3-0.2,0.5,0,0.8c0.8,1.1,0.8,1.1-0.3,2c-0.2,0.2-0.4,0.2-0.7,0c-0.1-0.1-0.1-0.1-0.2-0.1
			c-0.8-0.5-1.4-0.6-2.2,0c-0.2,0.1-0.2,0.5-0.3,0.7c-0.1,0.3-0.2,0.8-0.3,0.9c-0.5,0.1-1,0.1-1.5,0c-0.1,0-0.2-0.5-0.3-0.7
			c-0.1-0.3-0.1-0.7-0.2-0.9c-0.4-0.3-0.9-0.4-1.3-0.5c-0.2,0-0.4,0.2-0.7,0.3c-0.9,0.6-0.7,0.7-1.5-0.1C7,11.2,7,11.2,7.5,10.5
			c0.2-0.2,0.5-0.5,0.4-0.7c-0.1-0.5-0.3-1-0.6-1.4C7.1,8.2,6.6,8.2,6.3,8.2c-0.5,0-0.6-0.2-0.6-0.7c0,0,0-0.1,0-0.1
			C5.7,6,5.6,6.2,6.8,6c0.4-0.1,0.6-0.3,0.8-0.6C8,4.6,7.9,4,7.3,3.5C7,3.2,7.1,2.9,7.4,2.6C7.7,2.3,8,2,8.3,1.7z M7.8,11
			c0.2,0.2,0.4,0.4,0.6,0.6c0,0,0,0,0,0c0.7-0.7,1.5-0.8,2.4-0.3c0.7,0.3,1,0.7,1,1.4c0,0.3,0,0.5,0.5,0.5c0.4,0,0.5-0.2,0.5-0.6
			c0-0.7,0.3-1,1-1.3c1-0.5,1.8-0.5,2.5,0.4c0.3-0.2,0.4-0.4,0.7-0.6c-0.7-0.7-0.9-1.3-0.5-2.3c0.4-1.1,1.1-1.2,1.9-1.3
			c0.1-0.8,0.1-0.8-0.6-0.9c-0.3-0.1-0.9-0.1-1-0.3c-0.3-1-1.3-2.1,0-3.1c0,0,0-0.1,0-0.2c-0.1-0.1-0.3-0.3-0.5-0.5
			c-0.7,0.6-1.3,1-2.3,0.5c-1.1-0.4-1.2-1.1-1.3-2c-0.3,0-0.6,0-0.8,0c0,1-0.3,1.5-1.3,2C9.6,3.5,9,3,8.4,2.5C8.1,2.7,8,2.9,7.8,3
			c0,0.1,0,0.2,0.1,0.2c0.7,0.7,0.8,1.4,0.3,2.4c-0.3,0.6-0.6,1-1.3,1c-0.6,0-0.7,0.3-0.6,0.9c0.8,0.2,1.5,0.1,1.9,1.3
			C8.6,9.8,8.5,10.4,7.8,11z"/>
		<path class="st0" d="M5,8.2c0.3,0.2,0.4,0.3,0.5,0.4c0,0.3-0.1,0.6-0.1,0.8c0,2.2,0,4.4,0,6.6c0,0.7,0,0.8,0.8,0.8
			c4.2,0,8.3,0,12.5,0c0.8,0,0.8,0,0.8-0.8c0-2.2,0-4.4,0-6.6c0-0.3-0.1-0.5-0.1-0.9c0,0,0.2-0.2,0.5-0.4c0.1,0.4,0.3,0.7,0.3,1.1
			c0,2.3,0,4.7,0,7c0,0.8-0.3,1.2-1.2,1.2c-4.3,0-8.7,0-13,0c-0.8,0-1.2-0.4-1.2-1.2c0-2.3,0-4.7,0-7C4.7,8.9,4.9,8.6,5,8.2z"/>
		<path class="st0" d="M12.4,9.6c-1.4,0-2.5-1.1-2.5-2.5c0-1.4,1.1-2.5,2.5-2.5c1.4,0,2.5,1.1,2.5,2.5C14.9,8.5,13.8,9.6,12.4,9.6z
			 M12.4,9c1,0,1.9-0.9,1.9-1.9c0-1-0.9-1.9-1.9-1.9c-1,0-1.9,0.9-1.9,1.9C10.5,8.2,11.4,9,12.4,9z"/>
	</g>
</g>
<g>
	<polygon class="st0" points="11.9,8.3 10.9,7.3 11.3,7 11.9,7.6 13.3,6.3 13.6,6.6 	"/>
</g>
</svg>
