<?xml version="1.0" encoding="utf-8"?>
<!-- Generator: Adobe Illustrator 25.2.1, SVG Export Plug-In . SVG Version: 6.00 Build 0)  -->
<svg version="1.1" id="Layer_1" xmlns="http://www.w3.org/2000/svg" xmlns:xlink="http://www.w3.org/1999/xlink" x="0px" y="0px"
	 viewBox="0 0 500 500" style="enable-background:new 0 0 500 500;" xml:space="preserve">
<style type="text/css">
	.st0{fill:#59CBF5;}
</style>
<g>
	<g>
		<g>
			<path class="st0" d="M-3538.3,115.2c2.4,0.6,4.8,1,7,1.8c13.5,4.6,22.8,17.1,22.9,31.4c0.1,16.9,0,33.8,0,50.8
				c0,4.5-2.9,7.9-7.1,8.6c-3.9,0.6-7.9-1.7-9.1-5.4c-0.4-1.1-0.6-2.2-0.6-3.4c0-16.6,0-33.2-0.1-49.9c0-8.2-5.4-15-13.2-16.7
				c-1.2-0.2-2.4-0.4-3.6-0.4c-28.1,0-56.2,0-84.3,0c-7.3,0-13.5,4.4-15.9,11.3c-0.7,2-1,4.3-1,6.5c-0.1,44.5,0,89,0,133.4
				c0,9.8,6.8,17,16.5,17.3c11.1,0.2,22.2,0.1,33.2,0.1c0.2,0,0.4-0.1,0.8-0.1c0-0.6,0-1.3,0-1.9c0-21.5,0-43,0-64.6
				c0-6,3.1-9.2,9.1-9.2c15.8-0.1,31.5,0,47.3,0c33.3,0,66.7,0,100,0c12.1,0,24.2,0,36.2,0.1c5,0,7.3,1.6,9.2,6.3
				c0.1,0.1,0.2,0.2,0.3,0.3c0,48.8,0,97.7,0,146.5c-0.5,1.1-1,2.2-1.6,3.2c-1.2,2-3.3,2.8-5.3,3.7c-62.9,0-125.8,0-188.7,0
				c-0.1-0.1-0.2-0.2-0.3-0.3c-4.5-1.6-6.3-4.9-6.3-9.6c0.1-18.8,0-37.5,0-56.3c0-0.4-0.1-0.8-0.1-1.3c-0.8,0-1.6,0-2.3,0
				c-10.4,0-20.8,0-31.1,0c-14,0-26.3-8.3-31.4-21.3c-1.1-2.8-1.6-5.9-2.4-8.9c0-47.3,0-94.7,0-142c0.1-0.3,0.2-0.6,0.3-1
				c2.8-15,11.5-24.4,26.3-28.2c1-0.3,2-0.5,3-0.8C-3599.6,115.2-3569,115.2-3538.3,115.2z M-3575.7,241.7c0,0.7,0,1.3,0,1.9
				c0,21.3,0,42.5,0,63.8c0,19.8,0,39.5,0,59.3c0,1.1,0.3,1.4,1.3,1.4c2.2-0.1,4.5-0.1,6.7-0.1c23.1,0,46.1,0,69.2,0
				c29.9,0,59.8,0,89.7,0c0.5,0,1,0,1.5,0c0-42.2,0-84.3,0-126.3C-3463.5,241.7-3519.5,241.7-3575.7,241.7z"/>
			<path class="st0" d="M-3397.2,384.8c2-0.9,4.1-1.7,5.3-3.7c0.6-1,1-2.1,1.6-3.2c0,2.3,0,4.6,0,6.9
				C-3392.6,384.8-3394.9,384.8-3397.2,384.8z"/>
			<path class="st0" d="M-3626.2,170.6c0-4.5-0.1-9.1,0-13.6c0.1-4.1,3.1-7.5,7-8c4.3-0.6,8,1.7,9.3,5.8c0.4,1.1,0.5,2.3,0.5,3.5
				c0,8,0,16,0,24c0,5.3,3.9,8.9,8.9,8.7c4.5-0.2,7.8-3.9,7.9-8.7c0.1-8.1,0-16.2,0-24.3c0-0.7,0-1.4,0.1-2.1
				c0.8-4.4,4.5-7.3,8.9-6.9c4.2,0.3,7.6,3.7,7.7,8.1c0.1,9,0.1,18,0,26.9c-0.1,4.5-1.6,8.7-4.1,12.5c-6,9.1-17.1,13.3-27.9,10.4
				c-10.1-2.7-17.7-12.1-18.2-22.7C-3626.3,179.6-3626.1,175.1-3626.2,170.6C-3626.1,170.6-3626.2,170.6-3626.2,170.6z"/>
			<path class="st0" d="M-3558.8,178.2c0-6.8,0-13.6,0-20.4c0-6.6,5.3-9.5,9.6-8.9c4.2,0.6,7.2,4.2,7.2,9.1c0,11.7,0,23.4,0,35.2
				c0,2.4,0,4.8-0.2,7.2c-0.5,4.6-4.2,7.6-8.8,7.4c-4.2-0.2-7.7-3.7-7.8-8.2c-0.1-6.3-0.1-12.7-0.1-19
				C-3558.9,179.8-3558.9,179-3558.8,178.2C-3558.9,178.2-3558.8,178.2-3558.8,178.2z"/>
			<path class="st0" d="M-3558.8,276.9c0-4.5-0.1-9.1,0-13.6c0.1-4.1,3.1-7.5,7-8c4.3-0.6,8,1.7,9.3,5.8c0.4,1.1,0.5,2.3,0.5,3.5
				c0,8,0,16,0,24c0,5.3,3.9,8.9,8.9,8.7c4.5-0.2,7.8-3.9,7.9-8.7c0.1-8.1,0-16.2,0-24.3c0-0.7,0-1.4,0.1-2.1
				c0.8-4.4,4.5-7.3,8.9-6.9c4.2,0.3,7.6,3.7,7.7,8.1c0.1,9,0.1,18,0,26.9c-0.1,4.5-1.6,8.7-4.1,12.5c-6,9.1-17.1,13.3-27.9,10.4
				c-10.1-2.7-17.7-12.1-18.2-22.7C-3558.9,285.9-3558.7,281.4-3558.8,276.9C-3558.7,276.9-3558.8,276.9-3558.8,276.9z"/>
			<path class="st0" d="M-3466.1,351.1c-10.9,0-21.8,0-32.6,0c-4.6,0-7.8-2-9-5.5c-1.9-5.7,1.9-11.1,8.1-11.3
				c4.5-0.1,9-0.1,13.5-0.1c17.6,0,35.1,0,52.7,0c2.6,0,5.1,0.5,6.9,2.6c2.4,2.6,3.1,5.5,1.8,8.8s-3.7,5.3-7.3,5.3
				c-8,0.1-16.1,0.1-24.1,0.1C-3459.4,351-3462.8,351-3466.1,351.1C-3466.1,351-3466.1,351.1-3466.1,351.1z"/>
			<path class="st0" d="M-3542,351c-2.9,0-5.9,0.1-8.8,0c-4-0.1-7.2-3-7.9-6.9c-0.6-3.9,1.4-7.6,5-9.1c1-0.4,2.2-0.7,3.3-0.7
				c5.6-0.1,11.2-0.1,16.8,0c4.6,0.1,8.1,3.5,8.4,7.9c0.3,3.9-2.6,8-6.6,8.6c-2.5,0.4-5.2,0.2-7.8,0.3
				C-3540.4,351.1-3541.2,351.1-3542,351L-3542,351z"/>
		</g>
		<g>
			<g>
				<path class="st0" d="M-3453.9,311.8c1.4,1.4,3.4,2.3,5.5,2.3c4.4,0,7.9-3.5,7.9-7.9c0-1.8-0.6-3.4-1.6-4.8L-3453.9,311.8z"/>
			</g>
			<g>
				<path class="st0" d="M-3488.9,300.8c-1.3,1.4-2.1,3.3-2.1,5.3c0,4.4,3.5,7.9,7.9,7.9c2.2,0,4.1-0.9,5.5-2.3L-3488.9,300.8
					L-3488.9,300.8z"/>
			</g>
			<g>
				<path class="st0" d="M-3483,254.9c-4.4,0-7.9,3.5-7.9,7.9c0,1.5,0.4,3,1.2,4.2l12.7-9.4C-3478.5,255.9-3480.7,254.9-3483,254.9z
					"/>
			</g>
			<g>
				<path class="st0" d="M-3440.4,262.8c0-4.4-3.5-7.9-7.9-7.9c-2.4,0-4.5,1-5.9,2.7l12.9,9
					C-3440.8,265.5-3440.4,264.2-3440.4,262.8z"/>
			</g>
			<polygon class="st0" points="-3442,301.4 -3442.3,301.1 -3455.6,284.4 -3443.1,268.7 -3441.4,266.6 -3441.4,266.6 -3454.3,257.5 
				-3454.3,257.5 -3454.4,257.6 -3454.8,258.1 -3465.7,271.8 -3476.6,258.1 -3477.1,257.5 -3477.1,257.5 -3477.1,257.5 -3489.8,267 
				-3489.8,267 -3489.8,267 -3488.6,268.4 -3475.8,284.4 -3488.9,300.8 -3488.9,300.8 -3477.5,311.8 -3477.5,311.8 -3476.3,310.3 
				-3465.7,297.1 -3455.1,310.3 -3453.9,311.8 -3453.9,311.8 			"/>
		</g>
	</g>
</g>
<g>
	<g>
		<g>
			<path class="st0" d="M237,115.1c2.4,0.6,4.8,1,7,1.8c13.5,4.6,22.8,17.1,22.9,31.4c0.1,16.9,0,33.8,0,50.8c0,4.5-2.9,7.9-7.1,8.6
				c-3.9,0.6-7.9-1.7-9.1-5.4c-0.4-1.1-0.6-2.2-0.6-3.4c0-16.6,0-33.2-0.1-49.9c0-8.2-5.4-15-13.2-16.7c-1.2-0.2-2.4-0.4-3.6-0.4
				c-28.1,0-56.2,0-84.3,0c-7.3,0-13.5,4.4-15.9,11.3c-0.7,2-1,4.3-1,6.5c-0.1,44.5,0,89,0,133.4c0,9.8,6.8,17,16.5,17.3
				c11.1,0.2,22.2,0.1,33.2,0.1c0.2,0,0.4-0.1,0.8-0.1c0-0.6,0-1.3,0-1.9c0-21.5,0-43,0-64.6c0-6,3.1-9.2,9.1-9.2
				c15.8-0.1,31.5,0,47.3,0c33.3,0,66.7,0,100,0c12.1,0,24.2,0,36.2,0.1c5,0,7.3,1.6,9.2,6.3c0.1,0.1,0.2,0.2,0.3,0.3
				c0,48.8,0,97.7,0,146.5c-0.5,1.1-1,2.2-1.6,3.2c-1.2,2-3.3,2.8-5.3,3.7c-62.9,0-125.8,0-188.7,0c-0.1-0.1-0.2-0.2-0.3-0.3
				c-4.5-1.6-6.3-4.9-6.3-9.6c0.1-18.8,0-37.5,0-56.3c0-0.4-0.1-0.8-0.1-1.3c-0.8,0-1.6,0-2.3,0c-10.4,0-20.8,0-31.1,0
				c-14,0-26.3-8.3-31.4-21.3c-1.1-2.8-1.6-5.9-2.4-8.9c0-47.3,0-94.7,0-142c0.1-0.3,0.2-0.6,0.3-1c2.8-15,11.5-24.4,26.3-28.2
				c1-0.3,2-0.5,3-0.8C175.7,115.1,206.3,115.1,237,115.1z M199.6,241.6c0,0.7,0,1.3,0,1.9c0,21.3,0,42.5,0,63.8
				c0,19.8,0,39.5,0,59.3c0,1.1,0.3,1.4,1.3,1.4c2.2-0.1,4.5-0.1,6.7-0.1c23.1,0,46.1,0,69.2,0c29.9,0,59.8,0,89.7,0
				c0.5,0,1,0,1.5,0c0-42.2,0-84.3,0-126.3C311.8,241.6,255.8,241.6,199.6,241.6z"/>
			<path class="st0" d="M378.1,384.7c2-0.9,4.1-1.7,5.3-3.7c0.6-1,1-2.1,1.6-3.2c0,2.3,0,4.6,0,6.9
				C382.7,384.7,380.4,384.7,378.1,384.7z"/>
			<path class="st0" d="M149.1,170.5c0-4.5-0.1-9.1,0-13.6c0.1-4.1,3.1-7.5,7-8c4.3-0.6,8,1.7,9.3,5.8c0.4,1.1,0.5,2.3,0.5,3.5
				c0,8,0,16,0,24c0,5.3,3.9,8.9,8.9,8.7c4.5-0.2,7.8-3.9,7.9-8.7c0.1-8.1,0-16.2,0-24.3c0-0.7,0-1.4,0.1-2.1
				c0.8-4.4,4.5-7.3,8.9-6.9c4.2,0.3,7.6,3.7,7.7,8.1c0.1,9,0.1,18,0,26.9c-0.1,4.5-1.6,8.7-4.1,12.5c-6,9.1-17.1,13.3-27.9,10.4
				c-10.1-2.7-17.7-12.1-18.2-22.7C149,179.5,149.2,175,149.1,170.5C149.2,170.5,149.1,170.5,149.1,170.5z"/>
			<path class="st0" d="M216.5,178.1c0-6.8,0-13.6,0-20.4c0-6.6,5.3-9.5,9.6-8.9c4.2,0.6,7.2,4.2,7.2,9.1c0,11.7,0,23.4,0,35.2
				c0,2.4,0,4.8-0.2,7.2c-0.5,4.6-4.2,7.6-8.8,7.4c-4.2-0.2-7.7-3.7-7.8-8.2c-0.1-6.3-0.1-12.7-0.1-19
				C216.4,179.8,216.4,178.9,216.5,178.1C216.4,178.1,216.5,178.1,216.5,178.1z"/>
			<path class="st0" d="M216.5,276.8c0-4.5-0.1-9.1,0-13.6c0.1-4.1,3.1-7.5,7-8c4.3-0.6,8,1.7,9.3,5.8c0.4,1.1,0.5,2.3,0.5,3.5
				c0,8,0,16,0,24c0,5.3,3.9,8.9,8.9,8.7c4.5-0.2,7.8-3.9,7.9-8.7c0.1-8.1,0-16.2,0-24.3c0-0.7,0-1.4,0.1-2.1
				c0.8-4.4,4.5-7.3,8.9-6.9c4.2,0.3,7.6,3.7,7.7,8.1c0.1,9,0.1,18,0,26.9c-0.1,4.5-1.6,8.7-4.1,12.5c-6,9.1-17.1,13.3-27.9,10.4
				c-10.1-2.7-17.7-12.1-18.2-22.7C216.4,285.8,216.6,281.3,216.5,276.8C216.6,276.8,216.5,276.8,216.5,276.8z"/>
			<path class="st0" d="M309.2,351c-10.9,0-21.8,0-32.6,0c-4.6,0-7.8-2-9-5.5c-1.9-5.7,1.9-11.1,8.1-11.3c4.5-0.1,9-0.1,13.5-0.1
				c17.6,0,35.1,0,52.7,0c2.6,0,5.1,0.5,6.9,2.6c2.4,2.6,3.1,5.5,1.8,8.8s-3.7,5.3-7.3,5.3c-8,0.1-16.1,0.1-24.1,0.1
				C315.9,350.9,312.5,350.9,309.2,351C309.2,350.9,309.2,351,309.2,351z"/>
			<path class="st0" d="M233.3,350.9c-2.9,0-5.9,0.1-8.8,0c-4-0.1-7.2-3-7.9-6.9c-0.6-3.9,1.4-7.6,5-9.1c1-0.4,2.2-0.7,3.3-0.7
				c5.6-0.1,11.2-0.1,16.8,0c4.6,0.1,8.1,3.5,8.4,7.9c0.3,3.9-2.6,8-6.6,8.6c-2.5,0.4-5.2,0.2-7.8,0.3
				C234.9,351,234.1,351,233.3,350.9L233.3,350.9z"/>
		</g>
		<g>
			<g>
				<path class="st0" d="M321.4,311.7c1.4,1.4,3.4,2.3,5.5,2.3c4.4,0,7.9-3.5,7.9-7.9c0-1.8-0.6-3.4-1.6-4.8L321.4,311.7z"/>
			</g>
			<g>
				<path class="st0" d="M286.4,300.7c-1.3,1.4-2.1,3.3-2.1,5.3c0,4.4,3.5,7.9,7.9,7.9c2.2,0,4.1-0.9,5.5-2.3L286.4,300.7
					L286.4,300.7z"/>
			</g>
			<g>
				<path class="st0" d="M292.3,254.8c-4.4,0-7.9,3.5-7.9,7.9c0,1.5,0.4,3,1.2,4.2l12.7-9.4C296.8,255.8,294.6,254.8,292.3,254.8z"
					/>
			</g>
			<g>
				<path class="st0" d="M334.9,262.7c0-4.4-3.5-7.9-7.9-7.9c-2.4,0-4.5,1-5.9,2.7l12.9,9C334.5,265.4,334.9,264.1,334.9,262.7z"/>
			</g>
			<polygon class="st0" points="333.3,301.3 333,301 319.7,284.3 332.2,268.6 333.9,266.5 333.9,266.5 321,257.4 321,257.4 
				320.9,257.5 320.5,258 309.6,271.7 298.7,258 298.2,257.4 298.2,257.4 298.2,257.4 285.5,266.9 285.5,266.9 285.5,266.9 
				286.7,268.3 299.5,284.3 286.4,300.7 286.4,300.7 297.8,311.7 297.8,311.7 299,310.2 309.6,297 320.2,310.2 321.4,311.7 
				321.4,311.7 			"/>
		</g>
	</g>
</g>
</svg>
