<?xml version="1.0" encoding="utf-8"?>
<!-- Generator: Adobe Illustrator 25.2.1, SVG Export Plug-In . SVG Version: 6.00 Build 0)  -->
<svg version="1.1" id="Layer_1" xmlns="http://www.w3.org/2000/svg" xmlns:xlink="http://www.w3.org/1999/xlink" x="0px" y="0px" width="24" height="21"
	 viewBox="0 0 24 21" style="enable-background:new 0 0 24 21;" xml:space="preserve">
<style type="text/css">
	.st0{fill:#59CBF5;}
</style>
<g>
	<g>
		<g>
			<path class="st0" d="M11,0.1c0.2,0,0.4,0.1,0.5,0.1c1,0.4,1.8,1.3,1.8,2.4c0,1.3,0,2.6,0,3.9c0,0.3-0.2,0.6-0.5,0.7
				c-0.3,0-0.6-0.1-0.7-0.4c0-0.1,0-0.2,0-0.3c0-1.3,0-2.6,0-3.8c0-0.6-0.4-1.2-1-1.3c-0.1,0-0.2,0-0.3,0c-2.2,0-4.3,0-6.5,0
				c-0.6,0-1,0.3-1.2,0.9C2.9,2.4,2.9,2.6,2.9,2.8c0,3.4,0,6.9,0,10.3c0,0.8,0.5,1.3,1.3,1.3c0.9,0,1.7,0,2.6,0c0,0,0,0,0.1,0
				c0,0,0-0.1,0-0.1c0-1.7,0-3.3,0-5c0-0.5,0.2-0.7,0.7-0.7c1.2,0,2.4,0,3.6,0c2.6,0,5.1,0,7.7,0c0.9,0,1.9,0,2.8,0
				c0.4,0,0.6,0.1,0.7,0.5c0,0,0,0,0,0c0,3.8,0,7.5,0,11.3c0,0.1-0.1,0.2-0.1,0.2c-0.1,0.2-0.3,0.2-0.4,0.3c-4.8,0-9.7,0-14.5,0
				c0,0,0,0,0,0c-0.3-0.1-0.5-0.4-0.5-0.7c0-1.4,0-2.9,0-4.3c0,0,0-0.1,0-0.1c-0.1,0-0.1,0-0.2,0c-0.8,0-1.6,0-2.4,0
				c-1.1,0-2-0.6-2.4-1.6c-0.1-0.2-0.1-0.5-0.2-0.7c0-3.6,0-7.3,0-10.9c0,0,0,0,0-0.1c0.2-1.2,0.9-1.9,2-2.2c0.1,0,0.2,0,0.2-0.1
				C6.3,0.1,8.6,0.1,11,0.1z M8.1,9.9c0,0.1,0,0.1,0,0.1c0,1.6,0,3.3,0,4.9c0,1.5,0,3,0,4.6c0,0.1,0,0.1,0.1,0.1c0.2,0,0.3,0,0.5,0
				c1.8,0,3.5,0,5.3,0c2.3,0,4.6,0,6.9,0c0,0,0.1,0,0.1,0c0-3.2,0-6.5,0-9.7C16.8,9.9,12.4,9.9,8.1,9.9z"/>
			<path class="st0" d="M21.9,20.9c0.2-0.1,0.3-0.1,0.4-0.3c0-0.1,0.1-0.2,0.1-0.2c0,0.2,0,0.4,0,0.5C22.2,20.9,22,20.9,21.9,20.9z"
				/>
			<path class="st0" d="M4.2,4.4c0-0.3,0-0.7,0-1c0-0.3,0.2-0.6,0.5-0.6c0.3,0,0.6,0.1,0.7,0.4c0,0.1,0,0.2,0,0.3c0,0.6,0,1.2,0,1.8
				C5.5,5.7,5.8,6,6.2,6c0.3,0,0.6-0.3,0.6-0.7c0-0.6,0-1.2,0-1.9c0-0.1,0-0.1,0-0.2c0.1-0.3,0.3-0.6,0.7-0.5c0.3,0,0.6,0.3,0.6,0.6
				c0,0.7,0,1.4,0,2.1c0,0.3-0.1,0.7-0.3,1c-0.5,0.7-1.3,1-2.1,0.8C4.9,7,4.3,6.2,4.2,5.4C4.2,5.1,4.2,4.7,4.2,4.4
				C4.2,4.4,4.2,4.4,4.2,4.4z"/>
			<path class="st0" d="M9.4,5c0-0.5,0-1,0-1.6c0-0.5,0.4-0.7,0.7-0.7c0.3,0,0.6,0.3,0.6,0.7c0,0.9,0,1.8,0,2.7c0,0.2,0,0.4,0,0.6
				c0,0.4-0.3,0.6-0.7,0.6C9.7,7.2,9.4,7,9.4,6.6c0-0.5,0-1,0-1.5C9.4,5.1,9.4,5,9.4,5C9.4,5,9.4,5,9.4,5z"/>
			<path class="st0" d="M9.4,12.6c0-0.3,0-0.7,0-1c0-0.3,0.2-0.6,0.5-0.6c0.3,0,0.6,0.1,0.7,0.4c0,0.1,0,0.2,0,0.3
				c0,0.6,0,1.2,0,1.8c0,0.4,0.3,0.7,0.7,0.7c0.3,0,0.6-0.3,0.6-0.7c0-0.6,0-1.2,0-1.9c0-0.1,0-0.1,0-0.2c0.1-0.3,0.3-0.6,0.7-0.5
				c0.3,0,0.6,0.3,0.6,0.6c0,0.7,0,1.4,0,2.1c0,0.3-0.1,0.7-0.3,1c-0.5,0.7-1.3,1-2.1,0.8c-0.8-0.2-1.4-0.9-1.4-1.7
				C9.4,13.3,9.4,12.9,9.4,12.6C9.4,12.6,9.4,12.6,9.4,12.6z"/>
			<path class="st0" d="M16.6,18.3c-0.8,0-1.7,0-2.5,0c-0.4,0-0.6-0.2-0.7-0.4C13.2,17.4,13.5,17,14,17c0.3,0,0.7,0,1,0
				c1.4,0,2.7,0,4.1,0c0.2,0,0.4,0,0.5,0.2c0.2,0.2,0.2,0.4,0.1,0.7c-0.1,0.3-0.3,0.4-0.6,0.4c-0.6,0-1.2,0-1.9,0
				C17.1,18.3,16.8,18.3,16.6,18.3C16.6,18.3,16.6,18.3,16.6,18.3z"/>
			<path class="st0" d="M10.7,18.3c-0.2,0-0.5,0-0.7,0c-0.3,0-0.6-0.2-0.6-0.5c0-0.3,0.1-0.6,0.4-0.7C9.9,17,10,17,10.1,17
				c0.4,0,0.9,0,1.3,0c0.4,0,0.6,0.3,0.6,0.6c0,0.3-0.2,0.6-0.5,0.7c-0.2,0-0.4,0-0.6,0C10.8,18.3,10.8,18.3,10.7,18.3L10.7,18.3z"
				/>
		</g>
		<g>
			<g>
				<path class="st0" d="M17.5,15.3c0.1,0.1,0.3,0.2,0.4,0.2c0.3,0,0.6-0.3,0.6-0.6c0-0.1,0-0.3-0.1-0.4L17.5,15.3z"/>
			</g>
			<g>
				<path class="st0" d="M14.8,14.4c-0.1,0.1-0.2,0.3-0.2,0.4c0,0.3,0.3,0.6,0.6,0.6c0.2,0,0.3-0.1,0.4-0.2L14.8,14.4L14.8,14.4z"/>
			</g>
			<g>
				<path class="st0" d="M15.3,10.9c-0.3,0-0.6,0.3-0.6,0.6c0,0.1,0,0.2,0.1,0.3l1-0.7C15.6,11,15.4,10.9,15.3,10.9z"/>
			</g>
			<g>
				<path class="st0" d="M18.5,11.5c0-0.3-0.3-0.6-0.6-0.6c-0.2,0-0.3,0.1-0.5,0.2l1,0.7C18.5,11.7,18.5,11.6,18.5,11.5z"/>
			</g>
			<polygon class="st0" points="18.4,14.5 18.4,14.4 17.4,13.1 18.3,11.9 18.5,11.8 18.5,11.8 17.5,11.1 17.5,11.1 17.5,11.1 
				17.4,11.1 16.6,12.2 15.7,11.1 15.7,11.1 15.7,11.1 15.7,11.1 14.7,11.8 14.7,11.8 14.7,11.8 14.8,11.9 15.8,13.1 14.8,14.4 
				14.8,14.4 15.7,15.3 15.7,15.3 15.8,15.1 16.6,14.1 17.4,15.1 17.5,15.3 17.5,15.3 			"/>
		</g>
	</g>
</g>
</svg>
