<?xml version="1.0" encoding="utf-8"?>
<!-- Generator: Adobe Illustrator 25.2.1, SVG Export Plug-In . SVG Version: 6.00 Build 0)  -->
<svg version="1.1" id="Layer_1" xmlns="http://www.w3.org/2000/svg" xmlns:xlink="http://www.w3.org/1999/xlink" x="0px" y="0px"
	 viewBox="0 0 500 500" style="enable-background:new 0 0 500 500;" xml:space="preserve">
<style type="text/css">
	.st0{fill:#262324;}
	.st1{fill:#F5AD1F;}
</style>
<circle class="st0" cx="250" cy="250" r="241.2"/>
<g>
	<path class="st1" d="M250,248.2c-43.2,0-78.3-35.1-78.3-78.3s35.1-78.3,78.3-78.3s78.3,35.1,78.3,78.3S293.2,248.2,250,248.2z
		 M250,102.2c-37.4,0-67.7,30.4-67.7,67.7s30.4,67.7,67.7,67.7s67.7-30.4,67.7-67.7S287.4,102.2,250,102.2z"/>
	<path class="st1" d="M250,408.3c-84.1,0-124.1-23.6-125.7-24.6c-1.6-1-2.6-2.7-2.5-4.6c0.2-15.6,0.3-33.2,0.1-36
		c-0.1-0.3-0.1-0.7-0.1-1c0-28.5,9.4-48.8,28.7-62c20.3-13.9,52.9-20.7,99.6-20.7s79.3,6.8,99.6,20.7c19.3,13.2,28.7,33.5,28.7,62
		c0,0.3,0,0.7-0.1,1c-0.2,2.8-0.1,20.5,0.1,36c0,1.9-0.9,3.6-2.5,4.6C374.1,384.8,334.1,408.3,250,408.3z M132.3,376.1
		c9.9,5,48.5,21.7,117.7,21.7c69.2,0,107.8-16.7,117.7-21.7c-0.3-21.9-0.3-30.3,0.1-34h0c0-25.1-7.7-42.1-24.1-53.3
		c-18.5-12.7-49.1-18.8-93.7-18.8s-75.2,6.2-93.7,18.8c-16.4,11.2-24.1,28.2-24.1,53.3h0C132.6,345.8,132.6,354.2,132.3,376.1z
		 M377,345.6C377,345.6,377,345.6,377,345.6C377,345.6,377,345.6,377,345.6z M123,345.6C123,345.6,123,345.6,123,345.6
		C123,345.6,123,345.6,123,345.6z M377,345.6C377,345.6,377,345.6,377,345.6C377,345.6,377,345.6,377,345.6z M123,345.6
		C123,345.6,123,345.6,123,345.6C123,345.6,123,345.6,123,345.6z M377.5,344.8c-0.2,0.3-0.3,0.5-0.6,0.8
		C377.2,345.4,377.4,345.1,377.5,344.8z M123,345.6C123,345.6,123,345.6,123,345.6C123,345.6,123,345.6,123,345.6z M123,345.6
		C123,345.6,123,345.6,123,345.6C123,345.6,123,345.6,123,345.6z M122.5,344.9c0.1,0.2,0.3,0.5,0.5,0.7
		C122.8,345.4,122.6,345.1,122.5,344.9z"/>
</g>
</svg>
