<?xml version="1.0" encoding="utf-8"?>
<!-- Generator: Adobe Illustrator 25.2.1, SVG Export Plug-In . SVG Version: 6.00 Build 0)  -->
<svg version="1.1" id="Layer_1" xmlns="http://www.w3.org/2000/svg" xmlns:xlink="http://www.w3.org/1999/xlink" x="0px" y="0px"
	 viewBox="0 0 243.4 102.5" style="enable-background:new 0 0 243.4 102.5;" xml:space="preserve">
<style type="text/css">
	.st0{fill:#272425;}
	.st1{fill:#EEEDEE;}
	.st2{fill:#F5AE22;}
	.st3{fill-rule:evenodd;clip-rule:evenodd;fill:#EEEDEE;}
	.st4{fill:#FFFFFF;}
</style>
<g>
	<rect class="st0" width="243.4" height="102.5"/>
	<g>
		<path class="st1" d="M8,26.7H25l0.1,18.2L63.2,7.8h23.9L43.3,52.1l10.7,10.2c0,0-3.7,9.7-11.9,12.5c0.2,0-16.9-16.1-16.9-16.1
			v38.2H8V26.7z"/>
		<path class="st1" d="M57.4,90.5c0,0,7.2-4.2,11.7-12.7l18.8,19H63.5L57.4,90.5z"/>
		<path class="st2" d="M8,25V7.8l24.9,0.4c0,0,11.6-0.1,20.4,6c0,0-12.9,12.6-12.9,12.6s-3.7-1.5-9-1.8C31,25,8,25,8,25z"/>
		<path class="st2" d="M55.6,43l12.7-13c0,0,8,17.4,3.2,36.2c0,0-2.6,11.8-12.1,19.6c-6.1,5.3-16.7,10.2-30.6,11c-0.2,0-1.9,0-1.9,0
			l-0.1-16.5c0,0,19,1,26.8-12.6C53.9,67.3,59.5,58.1,55.6,43z"/>
	</g>
	<path class="st3" d="M235.1,55.5v0.4H95.2v-0.4H235.1z M235.1,81.5v0.4H94.7v-0.4H235.1z"/>
	<path class="st1" d="M102.1,48.2l0-4.8c0,0,3.4,0.6,5-2.4c0,0,0.5-0.7,0.7-2.4c0.1-1.2,0-1.6-0.4-3c0,0-0.8-3.6-6.2-3v15.6h-6.1
		V27.7h8.9c0,0,7.3-0.4,9.5,5.3c0,0,1.9,4.8-0.2,9.6C113.4,42.6,111.4,48.8,102.1,48.2z"/>
	<path class="st2" d="M211.5,48.1v-2.3c0,0,1.4,0.1,3.3-0.2c1.2-0.3,2.4-0.8,3.3-2.1c0,0,1.3-1.4,1.1-4.7c-0.1-1.6-0.8-3.7-2.7-4.4
		c0,0-1-0.9-5.7-0.7l0,14.4H208V31.3h6.4c0,0,5.3,0.4,6.5,3.4c0,0,0.9,0.8,1.2,3.7c0.2,1.2,0.1,3.1-0.8,5.1
		C221.2,43.4,219.2,48.7,211.5,48.1z"/>
	<path class="st1" d="M118,31.4h10.5v4H123v2.4h5.1l0,4h-5v2.5h5.4v3.9H118V31.4z"/>
	<path class="st1" d="M132.6,35.4v-4h13.4v4l-7.4,8.9h7.6v3.9l-14.1,0v-4l7.8-8.9H132.6z"/>
	<path class="st1" d="M149.8,31.4h5.8l1.9,5.5l0.4,1.6l0.4-1.9l1.8-5.2h5.4l-5.4,11.1v5.8h-5v-5.8L149.8,31.4z"/>
	<path class="st2" d="M169.1,27.8h3.3v9.7l7.5-9.7h4l-8,9.8l8.6,10.6h-4.5l-7.7-10.2v10.2h-3.3V27.8z"/>
	<path class="st2" d="M196.3,48.2c-0.4,0-1,0-1.5-0.1c-1.6-0.3-1.9-0.4-2.3-0.7c-0.2-0.1-0.3-0.2-0.5-0.3l0,0
		c-0.9-0.5-1.8-1.4-2.4-2.3c-1.2-1.9-1.7-4.3-1.2-7c0.3-1.6,0.5-2,0.9-2.8c0-0.1,0.1-0.2,0.1-0.3c0.2-0.3,0.8-1.4,2.3-2.5
		c1.1-0.8,2.9-1.4,4.4-1.4c0,0,0.1,0,0.1,0c1.2,0,2.2,0,3.5,0.6c1.9,0.8,2.9,2.2,2.9,2.2s1.3,1.3,1.7,4.1c0.3,1.7,0.2,4.5-1.1,6.8
		c0,0-0.7,1.4-2.5,2.6C199.8,47.6,198.4,48.2,196.3,48.2z M196.4,33.3c-1.7,0-3,0.9-3,0.9l-0.1,0.1c-1.6,1.2-2,3.3-2.1,4.1v0
		c-0.4,2.3,0.6,4.5,0.6,4.5c1.2,2.3,3,2.8,4.4,2.8c0.8,0,1.5-0.1,2.3-0.4h0c0.5-0.2,1.2-0.8,1.3-0.9c1-1,1.3-2.3,1.5-3.2
		c0.2-1,0.1-1.8,0.1-1.9c0-2.1-0.7-3.4-1.2-4.2c-0.5-0.8-1.1-1.1-1.1-1.1C198.3,33.5,197.4,33.3,196.4,33.3z"/>
	<path class="st2" d="M226.6,29.5h9v2.3h-6.4v4.7h5.9v2.5h-5.9V44h6.7v2.3h-9.3V29.5z"/>
	<path class="st4" d="M98.5,74.2H96v-11h2.5V74.2z M113.5,65.2h-3.1v9h-2.5v-9h-3.1v-2h8.8V65.2z M128.3,73.8v-2.5
		c0.4,0.4,0.9,0.7,1.5,0.8c0.5,0.2,1.1,0.3,1.6,0.3c0.3,0,0.6,0,0.8-0.1c0.2-0.1,0.4-0.1,0.6-0.2c0.2-0.1,0.3-0.2,0.4-0.4
		c0.1-0.1,0.1-0.3,0.1-0.4c0-0.2-0.1-0.4-0.2-0.6c-0.1-0.2-0.3-0.3-0.5-0.5c-0.2-0.1-0.5-0.3-0.8-0.4c-0.3-0.1-0.6-0.3-0.9-0.4
		c-0.9-0.4-1.5-0.8-1.9-1.3c-0.4-0.5-0.6-1.1-0.6-1.9c0-0.6,0.1-1.1,0.3-1.5c0.2-0.4,0.5-0.8,0.9-1c0.4-0.3,0.9-0.5,1.4-0.6
		c0.5-0.1,1.1-0.2,1.7-0.2c0.6,0,1.1,0,1.5,0.1c0.4,0.1,0.9,0.2,1.2,0.3v2.3c-0.2-0.1-0.4-0.2-0.6-0.3c-0.2-0.1-0.4-0.2-0.7-0.2
		c-0.2-0.1-0.5-0.1-0.7-0.1c-0.2,0-0.4,0-0.6,0c-0.3,0-0.5,0-0.8,0.1c-0.2,0.1-0.4,0.1-0.6,0.2c-0.2,0.1-0.3,0.2-0.4,0.4
		c-0.1,0.1-0.1,0.3-0.1,0.5c0,0.2,0,0.4,0.1,0.5c0.1,0.1,0.2,0.3,0.4,0.4c0.2,0.1,0.4,0.3,0.7,0.4c0.3,0.1,0.5,0.3,0.9,0.4
		c0.4,0.2,0.8,0.4,1.2,0.6c0.4,0.2,0.7,0.4,0.9,0.7c0.3,0.3,0.4,0.6,0.6,0.9c0.1,0.3,0.2,0.7,0.2,1.2c0,0.6-0.1,1.1-0.4,1.6
		c-0.2,0.4-0.5,0.8-0.9,1c-0.4,0.3-0.9,0.4-1.4,0.6c-0.5,0.1-1.1,0.2-1.7,0.2c-0.6,0-1.2-0.1-1.7-0.2
		C129.1,74.1,128.7,74,128.3,73.8z M145.9,74.4c-1.3,0-2.3-0.4-3.1-1.1c-0.7-0.7-1.1-1.7-1.1-3c0-1.3,0.4-2.3,1.2-3.1
		c0.8-0.7,1.8-1.1,3.2-1.1c1.3,0,2.3,0.4,3.1,1.1c0.7,0.7,1.1,1.7,1.1,2.9c0,1.3-0.4,2.3-1.2,3.1C148.2,74,147.2,74.4,145.9,74.4z
		 M145.9,68c-0.6,0-1,0.2-1.3,0.6c-0.3,0.4-0.5,1-0.5,1.7c0,1.5,0.6,2.3,1.8,2.3c1.2,0,1.7-0.8,1.7-2.3
		C147.7,68.7,147.1,68,145.9,68z M158.9,74.2h-2.4V62.5h2.4V74.2z M173.2,74.2h-2.4V73h0c-0.6,0.9-1.4,1.4-2.4,1.4
		c-1.8,0-2.7-1.1-2.7-3.3v-4.8h2.4v4.5c0,1.1,0.4,1.7,1.3,1.7c0.4,0,0.8-0.2,1-0.5c0.3-0.3,0.4-0.7,0.4-1.2v-4.5h2.4V74.2z
		 M184.7,74.1c-0.4,0.2-0.9,0.3-1.6,0.3c-1.7,0-2.6-0.9-2.6-2.7v-3.6h-1.3v-1.8h1.3v-1.7l2.4-0.7v2.4h1.8v1.8H183v3.2
		c0,0.8,0.3,1.2,1,1.2c0.3,0,0.5-0.1,0.8-0.2V74.1z M192.1,65.1c-0.4,0-0.7-0.1-1-0.4c-0.3-0.2-0.4-0.5-0.4-0.9
		c0-0.4,0.1-0.7,0.4-0.9c0.3-0.2,0.6-0.3,1-0.3c0.4,0,0.8,0.1,1,0.3c0.3,0.2,0.4,0.5,0.4,0.9c0,0.4-0.1,0.7-0.4,0.9
		C192.8,65,192.5,65.1,192.1,65.1z M193.3,74.2h-2.4v-7.9h2.4V74.2z M203.8,74.4c-1.3,0-2.3-0.4-3.1-1.1c-0.7-0.7-1.1-1.7-1.1-3
		c0-1.3,0.4-2.3,1.2-3.1c0.8-0.7,1.8-1.1,3.2-1.1c1.3,0,2.3,0.4,3.1,1.1c0.7,0.7,1.1,1.7,1.1,2.9c0,1.3-0.4,2.3-1.2,3.1
		C206.2,74,205.1,74.4,203.8,74.4z M203.9,68c-0.6,0-1,0.2-1.3,0.6c-0.3,0.4-0.5,1-0.5,1.7c0,1.5,0.6,2.3,1.8,2.3
		c1.2,0,1.7-0.8,1.7-2.3C205.6,68.7,205.1,68,203.9,68z M222,74.2h-2.4v-4.4c0-1.2-0.4-1.8-1.3-1.8c-0.4,0-0.8,0.2-1,0.5
		c-0.3,0.3-0.4,0.7-0.4,1.2v4.5h-2.4v-7.9h2.4v1.2h0c0.6-1,1.4-1.4,2.5-1.4c1.7,0,2.6,1.1,2.6,3.2V74.2z M228.2,74v-2
		c0.4,0.2,0.8,0.4,1.2,0.5c0.4,0.1,0.8,0.2,1.1,0.2c0.4,0,0.8-0.1,1-0.2c0.3-0.1,0.4-0.3,0.4-0.5c0-0.2-0.1-0.3-0.2-0.4
		c-0.1-0.1-0.3-0.2-0.4-0.3c-0.2-0.1-0.4-0.1-0.6-0.2c-0.2-0.1-0.4-0.1-0.6-0.2c-0.3-0.1-0.6-0.2-0.8-0.4c-0.2-0.1-0.4-0.3-0.6-0.5
		c-0.2-0.2-0.3-0.4-0.4-0.6c-0.1-0.2-0.1-0.5-0.1-0.8c0-0.4,0.1-0.8,0.3-1.1c0.2-0.3,0.5-0.6,0.8-0.8c0.3-0.2,0.7-0.4,1.1-0.4
		c0.4-0.1,0.8-0.1,1.3-0.1c0.3,0,0.7,0,1.1,0.1c0.4,0.1,0.7,0.1,1.1,0.2v1.9c-0.3-0.2-0.6-0.3-1-0.4c-0.3-0.1-0.7-0.1-1-0.1
		c-0.2,0-0.3,0-0.5,0c-0.1,0-0.3,0.1-0.4,0.1c-0.1,0.1-0.2,0.1-0.3,0.2c-0.1,0.1-0.1,0.2-0.1,0.3c0,0.1,0,0.3,0.1,0.4
		s0.2,0.2,0.4,0.3c0.1,0.1,0.3,0.1,0.5,0.2c0.2,0.1,0.4,0.1,0.5,0.2c0.3,0.1,0.6,0.2,0.9,0.4c0.3,0.1,0.5,0.3,0.7,0.5
		c0.2,0.2,0.3,0.4,0.4,0.6c0.1,0.2,0.2,0.5,0.2,0.9c0,0.5-0.1,0.9-0.3,1.2c-0.2,0.3-0.5,0.6-0.8,0.8c-0.3,0.2-0.7,0.4-1.2,0.4
		c-0.4,0.1-0.9,0.1-1.4,0.1C229.7,74.4,228.9,74.3,228.2,74z"/>
</g>
</svg>
