<?xml version="1.0" encoding="utf-8"?>
<!-- Generator: Adobe Illustrator 25.2.1, SVG Export Plug-In . SVG Version: 6.00 Build 0)  -->
<svg version="1.1" id="Layer_1" xmlns="http://www.w3.org/2000/svg" xmlns:xlink="http://www.w3.org/1999/xlink" x="0px" y="0px" height="500px" width="500px"
	 viewBox="0 0 500 500" style="enable-background:new 0 0 500 500;" xml:space="preserve">
<style type="text/css">
	.st0{fill:url(#SVGID_1_);}
	.st1{fill:#AFD8A0;}
	.st2{opacity:0.43;fill:#FFFFFF;}
	.st3{fill:#FFFFFF;}
	.st4{fill:#C52127;}
	.st5{fill:#AF1F24;}
	.st6{fill:#ED1F24;}
	.st7{fill:url(#SVGID_2_);}
	.st8{fill:url(#SVGID_3_);}
	.st9{fill:#98B1DC;}
	.st10{fill:#F3931F;}
	.st11{fill:#9CD8D4;}
	.st12{fill:url(#SVGID_4_);}
	.st13{fill:#F7EC13;}
	.st14{fill:url(#SVGID_5_);}
	.st15{opacity:0.63;fill:#FFFFFF;}
	.st16{fill:url(#SVGID_6_);}
	.st17{fill:url(#SVGID_7_);}
	.st18{fill:url(#SVGID_8_);}
	.st19{fill:#F89E6E;}
	.st20{fill:url(#SVGID_9_);}
	.st21{fill:url(#SVGID_10_);}
	.st22{fill:url(#SVGID_11_);}
	.st23{fill:url(#SVGID_12_);}
	.st24{fill:url(#SVGID_13_);}
	.st25{fill:url(#SVGID_14_);}
	.st26{fill:url(#SVGID_15_);}
	.st27{fill:url(#SVGID_16_);}
	.st28{fill:url(#SVGID_17_);}
	.st29{fill:url(#SVGID_18_);}
	.st30{fill:url(#SVGID_19_);}
	.st31{fill:url(#SVGID_20_);}
	.st32{fill:url(#SVGID_21_);}
	.st33{fill:url(#SVGID_22_);}
</style>
<g>
	<linearGradient id="SVGID_1_" gradientUnits="userSpaceOnUse" x1="475.0513" y1="527.8136" x2="159.2037" y2="135.5508">
		<stop  offset="0" style="stop-color:#DBE2F3"/>
		<stop  offset="1" style="stop-color:#EAEFF8"/>
	</linearGradient>
	<path class="st0" d="M385.6,370.2c-6.5,8.3-23.5,25.8-29.1,29.5c-49.9,32.3-123,22-139,18.8c-23.7-4.8-78.5-0.8-111.7-39.7
		c-50.1-59-45.4-158.1-6.6-219.4c7.1-11.2,50.7-78,127-88c46.2-6,115.5,1.1,154.5,33.8C462.7,173.7,427.7,316.4,385.6,370.2z"/>
	<g>
		<g>
			<path class="st1" d="M174.6,126.3c0-1.6,2.1-2.1,2.9-0.7c6.9,13.5,26.3,48.5,48.4,64.6c36,26.3,66.2,74.7,52.8,105.6
				C278.7,295.9,172.6,297.9,174.6,126.3z"/>
			<path class="st2" d="M181.6,146.2c0.1,0.5,0.3,0.8,0.4,1.2l0.4,1.2l0.9,2.4c0.6,1.6,1.2,3.1,1.9,4.7c1.3,3.1,2.6,6.2,3.9,9.3
				c2.7,6.2,5.6,12.3,8.5,18.3c2.9,6.1,6.1,12,9.3,17.9c3.2,5.9,6.6,11.8,10.1,17.5c7,11.5,14.7,22.6,23.1,33.2
				c4.3,5.2,8.7,10.3,13.3,15.2c4.7,4.8,9.6,9.4,14.9,13.7c0.1,0.1,0.3,0.1,0.4,0c0.1-0.1,0.1-0.3,0-0.4l0,0
				c-5.1-4.4-9.9-9.1-14.4-14c-4.6-4.9-8.9-10.1-13-15.3c-4.1-5.3-8.1-10.7-11.9-16.2c-3.8-5.5-7.4-11.2-10.9-16.9
				c-7-11.4-13.5-23.2-19.6-35.2c-3-6-6-12-8.8-18.1c-1.4-3-2.8-6.1-4.1-9.2l-2-4.6l-1-2.3l-0.5-1.2c-0.1-0.4-0.3-0.8-0.4-1.1l0-0.1
				c0-0.1-0.2-0.2-0.3-0.2C181.6,146,181.6,146.1,181.6,146.2z"/>
		</g>
		<g>
			<path class="st1" d="M227.3,78c0.4-1.4,2.5-1.3,2.8,0.2c2.7,14.3,10.9,51.6,26.7,72.5c25.8,33.9,40.3,86.5,19.6,111.3
				C276.4,261.9,178.6,234.7,227.3,78z"/>
			<path class="st2" d="M228.2,98.2c0,0.5,0,0.8,0,1.2l0.1,1.2l0.2,2.4c0.1,1.6,0.3,3.2,0.4,4.8c0.3,3.2,0.7,6.4,1.1,9.6
				c0.8,6.4,1.7,12.8,2.8,19.1c1,6.4,2.3,12.7,3.6,19c1.4,6.3,2.8,12.6,4.5,18.8c3.3,12.5,7.3,24.8,12.1,36.7
				c2.5,6,5.1,11.8,8.1,17.6c3,5.7,6.3,11.3,9.9,16.6c0.1,0.1,0.2,0.1,0.4,0.1c0.1-0.1,0.1-0.2,0.1-0.4l0,0
				c-3.4-5.4-6.6-11-9.4-16.8c-2.9-5.7-5.4-11.6-7.8-17.6c-2.4-6-4.5-12-6.5-18.1c-2-6.1-3.7-12.3-5.4-18.5c-3.3-12.4-6-25-8.3-37.6
				c-1.2-6.3-2.2-12.7-3.1-19c-0.5-3.2-0.9-6.4-1.3-9.6l-0.6-4.8l-0.3-2.4l-0.1-1.2c0-0.4-0.1-0.8-0.1-1.2l0-0.1
				c0-0.1-0.1-0.3-0.3-0.2C228.4,97.9,228.2,98,228.2,98.2z"/>
		</g>
	</g>
	<g>
		<g>
			
				<ellipse transform="matrix(4.031773e-02 -0.9992 0.9992 4.031773e-02 203.5694 443.662)" class="st3" cx="332.7" cy="115.9" rx="78.1" ry="78.1"/>
			<g>
				<circle class="st4" cx="332.7" cy="115.9" r="66.7"/>
				<path class="st3" d="M332.7,185.9c-38.6,0-70-31.4-70-70c0-38.6,31.4-70,70-70c38.6,0,70,31.4,70,70
					C402.8,154.5,371.4,185.9,332.7,185.9z M332.7,49.2c-36.8,0-66.7,29.9-66.7,66.7c0,36.8,29.9,66.7,66.7,66.7
					c36.8,0,66.7-29.9,66.7-66.7C399.4,79.1,369.5,49.2,332.7,49.2z"/>
			</g>
			<g>
				
					<ellipse transform="matrix(6.891216e-02 -0.9976 0.9976 6.891216e-02 194.2359 439.8286)" class="st5" cx="332.7" cy="115.9" rx="40.7" ry="40.7"/>
				<path class="st3" d="M332.7,159.9c-24.3,0-44-19.7-44-44c0-24.3,19.7-44,44-44c24.3,0,44,19.7,44,44
					C376.7,140.1,357,159.9,332.7,159.9z M332.7,78.5c-20.6,0-37.3,16.7-37.3,37.3c0,20.6,16.7,37.3,37.3,37.3
					c20.6,0,37.3-16.7,37.3-37.3S353.3,78.5,332.7,78.5z"/>
			</g>
			<g>
				
					<ellipse transform="matrix(0.1471 -0.9891 0.9891 0.1471 169.208 427.9435)" class="st6" cx="332.7" cy="115.9" rx="15.8" ry="15.8"/>
				<path class="st3" d="M332.7,134.9c-10.5,0-19.1-8.6-19.1-19.1s8.6-19.1,19.1-19.1c10.5,0,19.1,8.6,19.1,19.1
					S343.3,134.9,332.7,134.9z M332.7,103.4c-6.8,0-12.4,5.6-12.4,12.4c0,6.8,5.6,12.4,12.4,12.4c6.8,0,12.4-5.6,12.4-12.4
					C345.2,109,339.6,103.4,332.7,103.4z"/>
			</g>
		</g>
		<g>
			
				<linearGradient id="SVGID_2_" gradientUnits="userSpaceOnUse" x1="-1738.3589" y1="2656.448" x2="-1762.187" y2="2753.2495" gradientTransform="matrix(-0.7071 -0.7071 0.7071 -0.7071 -2797.2576 758.3822)">
				<stop  offset="0" style="stop-color:#201B59"/>
				<stop  offset="1" style="stop-color:#2D2D84"/>
			</linearGradient>
			<polygon class="st7" points="427.5,20.9 429.6,23 349.8,102.7 347.7,100.6 			"/>
			
				<linearGradient id="SVGID_3_" gradientUnits="userSpaceOnUse" x1="-1758.6764" y1="2676.7954" x2="-1765.9575" y2="2754.9026" gradientTransform="matrix(-0.7071 -0.7071 0.7071 -0.7071 -2797.2576 758.3822)">
				<stop  offset="0" style="stop-color:#201B59"/>
				<stop  offset="1" style="stop-color:#2D2D84"/>
			</linearGradient>
			<path class="st8" d="M349.2,95.5c1.2-1.2,6.9,4.5,5.7,5.7l-21.1,16.6c-0.8,0.6-1.8-0.4-1.2-1.2L349.2,95.5z"/>
			<path class="st9" d="M429.5,23l10.7,1.1l-14.7,14.7c-4.8,4.8-11.6,7.2-18.4,6.6l0,0L429.5,23z"/>
			<path class="st9" d="M427.4,20.9l-1.1-10.7l-14.7,14.7c-4.8,4.8-7.2,11.6-6.6,18.4l0,0L427.4,20.9z"/>
		</g>
	</g>
	<path class="st10" d="M429.7,432l-152.2,0l0-212.3c0-3.5,2.8-6.3,6.3-6.3l141.8,0c3.5,0,6.3,2.8,6.3,6.3l0,210
		C432,431,430.9,432,429.7,432z"/>
	<path class="st11" d="M344.8,432.6l-134.6,0l0-168.7c0-3.5,2.8-6.3,6.3-6.3l121.9,0c3.5,0,6.3,2.8,6.3,6.3L344.8,432.6z"/>
	<linearGradient id="SVGID_4_" gradientUnits="userSpaceOnUse" x1="407.051" y1="95.7056" x2="-3.5015" y2="642.1843">
		<stop  offset="0" style="stop-color:#F5928F"/>
		<stop  offset="1" style="stop-color:#F37064"/>
	</linearGradient>
	<path class="st12" d="M250.8,432l-113.7,0c-1.3,0-2.3-1-2.3-2.3l0-97.9c0-3.5,2.8-6.3,6.3-6.3l103.3,0c3.5,0,6.3,2.8,6.3,6.3
		L250.8,432z"/>
	<path class="st11" d="M184,432l-113.7,0c-1.3,0-2.3-1-2.3-2.3l0-56.3c0-3.5,2.8-6.3,6.3-6.3l103.3,0c3.5,0,6.3,2.8,6.3,6.3L184,432
		z"/>
	<g>
		<polygon class="st13" points="383.9,207 379.5,207 372.6,186.7 391.8,185.5 		"/>
		<path class="st13" d="M360.9,149c0,1.7,0,35.3,17,40.7c17,5.5,24.7-23,24.1-43.2L360.9,149z"/>
		<linearGradient id="SVGID_5_" gradientUnits="userSpaceOnUse" x1="385.0871" y1="157.4867" x2="383.3374" y2="185.483">
			<stop  offset="0" style="stop-color:#E1483D"/>
			<stop  offset="1" style="stop-color:#E9625A"/>
		</linearGradient>
		<rect x="368.1" y="210.1" class="st14" width="27.2" height="3.3"/>
		<polygon class="st13" points="395.3,210.1 368.1,210.1 375,206.4 388.4,206.4 		"/>
		<path class="st13" d="M358.9,144.2c-1.5,0.1-2.7,1.2-2.7,2.5v2.6c0,1.3,1.2,2.2,2.7,2.1l46.7-2.5c1.5-0.1,2.7-1.2,2.7-2.4v-2.9
			c0-1.3-1.2-2.2-2.7-2.1L358.9,144.2z"/>
		<path class="st13" d="M390,192.4c-1.1,0-2-0.7-2.2-1.6c-0.1-1,0.7-1.9,1.9-2c0.2,0,15.9-1.7,17.4-10.3c0.3-1.4,0.2-3.3-1.3-4.1
			c-1.3-0.7-3.4-0.4-4.9,0.5c-0.9,0.5-1.8,1.4-1.4,2.8c0.3,1-0.4,2-1.6,2.2c-1.2,0.2-2.3-0.4-2.6-1.4c-0.7-2.5,0.4-5,3.1-6.6
			c2.9-1.8,6.9-2.1,9.7-0.7c1.6,0.8,4.2,2.9,3.4,7.8c-0.8,4.8-4.8,8.6-11.6,11.1c-4.8,1.8-9.4,2.2-9.6,2.2
			C390.2,192.4,390.1,192.4,390,192.4z"/>
		<path class="st13" d="M373.7,192.4c1.1,0,2-0.7,2.2-1.6c0.1-1-0.7-1.9-1.9-2c-0.2,0-15.9-1.7-17.4-10.3c-0.3-1.4-0.2-3.3,1.3-4.1
			c1.3-0.7,3.4-0.4,4.9,0.5c0.9,0.5,1.8,1.4,1.4,2.8c-0.3,1,0.4,2,1.6,2.2c1.2,0.2,2.3-0.4,2.6-1.4c0.7-2.5-0.4-5-3.1-6.6
			c-2.9-1.8-6.9-2.1-9.7-0.7c-1.6,0.8-4.2,2.9-3.4,7.8c0.8,4.8,4.8,8.6,11.6,11.1c4.8,1.8,9.4,2.2,9.6,2.2
			C373.6,192.4,373.7,192.4,373.7,192.4z"/>
		<path class="st15" d="M392.8,146.3c-0.2,0-0.3-0.1-0.4-0.3c0-0.2,0.1-0.4,0.3-0.4l4.2-0.2c0.2,0,0.4,0.1,0.4,0.3
			c0,0.2-0.1,0.4-0.3,0.4L392.8,146.3C392.8,146.3,392.8,146.3,392.8,146.3z"/>
		<path class="st15" d="M360.9,148c-0.2,0-0.3-0.1-0.4-0.3c0-0.2,0.1-0.4,0.3-0.4l24.9-1.3c0.2,0,0.4,0.1,0.4,0.3
			c0,0.2-0.1,0.4-0.3,0.4L360.9,148C360.9,148,360.9,148,360.9,148z"/>
		<path class="st15" d="M380.2,185.9C380.2,185.9,380.2,185.9,380.2,185.9c-4.6-0.5-8.2-4.2-10.8-10.9c-2.1-5.6-3.2-12.1-3.6-16.5
			c0-0.2,0.1-0.4,0.3-0.4c0.2,0,0.4,0.1,0.4,0.3c0.8,7.7,3.8,25.7,13.7,26.8c0.2,0,0.3,0.2,0.3,0.4
			C380.5,185.8,380.4,185.9,380.2,185.9z"/>
		<path class="st15" d="M365.9,155.2c-0.2,0-0.3-0.1-0.4-0.3c-0.1-1-0.1-1.6-0.1-1.6c0-0.2,0.1-0.4,0.3-0.4c0.2,0,0.4,0.1,0.4,0.3
			c0,0,0,0.6,0.1,1.6C366.2,155.1,366.1,155.2,365.9,155.2C365.9,155.2,365.9,155.2,365.9,155.2z"/>
	</g>
	<g>
		<linearGradient id="SVGID_6_" gradientUnits="userSpaceOnUse" x1="184.7383" y1="257.3599" x2="129.6116" y2="226.9775">
			<stop  offset="0" style="stop-color:#5560AB"/>
			<stop  offset="1" style="stop-color:#4C57A6"/>
		</linearGradient>
		<path class="st16" d="M175.7,239.2l-9,13.9c4.2,8.2,8.9,12.7,13.5,14.9c0.8-5.1,3.8-9.3,6-11.9
			C177.8,251.4,175.7,239.2,175.7,239.2z"/>
		<linearGradient id="SVGID_7_" gradientUnits="userSpaceOnUse" x1="213.4701" y1="251.0873" x2="145.5796" y2="283.9754">
			<stop  offset="0" style="stop-color:#F9BABA"/>
			<stop  offset="1" style="stop-color:#F5928F"/>
		</linearGradient>
		<path class="st17" d="M206.7,253.6c-9.3,5.5-15.9,5.2-20.5,2.5c-2.2,2.5-5.2,6.8-6,11.9c14.8,6.8,29.7-10.4,29.7-10.4L206.7,253.6
			z"/>
		<linearGradient id="SVGID_8_" gradientUnits="userSpaceOnUse" x1="213.7939" y1="251.7558" x2="145.9035" y2="284.6439">
			<stop  offset="0" style="stop-color:#F9BABA"/>
			<stop  offset="1" style="stop-color:#F5928F"/>
		</linearGradient>
		<path class="st18" d="M207.2,256c0,0-2.5-4.4,1.1-7.7c0,0,1.2-1.3,2.4,0.6c0,0,3.9-3.5,4.9-2.1c1.1,1.4,3.9,4.9,1.1,8.9
			C214,259.7,208.4,258,207.2,256z"/>
		<path class="st19" d="M211,253.6c-0.4,0-0.8-0.1-1.1-0.3c-0.3-0.2-0.8-0.6-0.9-1.5c0-0.2,0.1-0.5,0.4-0.5c0.2,0,0.5,0.1,0.5,0.4
			c0.1,0.4,0.2,0.7,0.4,0.8c0.3,0.2,0.9,0.2,1.2,0.1l-0.9-2.8c-0.1-0.2,0.1-0.5,0.3-0.6c0.2-0.1,0.5,0.1,0.6,0.3l1,3.2
			c0.1,0.2,0,0.5-0.3,0.6C212.2,253.3,211.7,253.6,211,253.6z"/>
		<linearGradient id="SVGID_9_" gradientUnits="userSpaceOnUse" x1="74.6963" y1="358.5912" x2="85.3249" y2="358.5912">
			<stop  offset="0" style="stop-color:#201B59"/>
			<stop  offset="1" style="stop-color:#2D2D84"/>
		</linearGradient>
		<path class="st20" d="M75.8,347c-0.8,0.5-1.2,1.5-1,2.5c0.8,3.9,3.2,14.3,9.3,20.5c0.4,0.4,1,0.4,1.3,0c-1.5-1.6-3.4-4.3-5.6-8.9
			C76.3,353.9,75.7,349.6,75.8,347z"/>
		<linearGradient id="SVGID_10_" gradientUnits="userSpaceOnUse" x1="75.7576" y1="357.923" x2="87.0678" y2="357.923">
			<stop  offset="0" style="stop-color:#201B59"/>
			<stop  offset="1" style="stop-color:#2D2D84"/>
		</linearGradient>
		<path class="st21" d="M83.5,346.8c0,0-3.9-2.1-7.7,0.1c0,0,0,0,0,0c-0.1,2.6,0.5,7,3.9,14c2.2,4.6,4.1,7.3,5.6,8.9
			c0.1-0.1,0.2-0.3,0.3-0.4C86.7,365.6,89.1,354.6,83.5,346.8z"/>
		<linearGradient id="SVGID_11_" gradientUnits="userSpaceOnUse" x1="81.404" y1="346.4865" x2="89.7211" y2="346.4865">
			<stop  offset="0" style="stop-color:#F9BABA"/>
			<stop  offset="1" style="stop-color:#F5928F"/>
		</linearGradient>
		<path class="st22" d="M89.2,347.1l-3.5,3.4c-0.6,0.6-1.6,0.7-2.3,0.2c-0.6-0.4-1.3-1.1-1.8-2.2c-0.3-0.7-0.1-1.4,0.3-2l3.5-3.9
			c0.8-0.9,2.3-0.8,3,0.3l1.1,1.9C89.9,345.5,89.8,346.5,89.2,347.1z"/>
		<linearGradient id="SVGID_12_" gradientUnits="userSpaceOnUse" x1="202.8845" y1="320.4302" x2="218.8175" y2="320.4302">
			<stop  offset="0" style="stop-color:#201B59"/>
			<stop  offset="1" style="stop-color:#2D2D84"/>
		</linearGradient>
		<path class="st23" d="M202.9,330.1c0.8,0.5,1.9,0.3,2.7-0.3c3-2.6,10.8-9.9,13.2-18.2c0.2-0.5-0.2-1-0.7-1.2
			c-0.6,2.1-2.1,5.1-5,9.3C208.7,326.2,205.2,328.9,202.9,330.1z"/>
		<linearGradient id="SVGID_13_" gradientUnits="userSpaceOnUse" x1="198.9133" y1="320.2813" x2="218.1254" y2="320.2813">
			<stop  offset="0" style="stop-color:#201B59"/>
			<stop  offset="1" style="stop-color:#2D2D84"/>
		</linearGradient>
		<path class="st24" d="M198.9,323.4c0,0,0.1,4.4,3.9,6.7c0,0,0,0,0,0c2.3-1.2,5.8-3.9,10.3-10.4c2.9-4.2,4.3-7.2,5-9.3
			c-0.2,0-0.3,0-0.5,0C213.6,311.4,203,314.7,198.9,323.4z"/>
		<linearGradient id="SVGID_14_" gradientUnits="userSpaceOnUse" x1="193.8202" y1="319.7249" x2="202.9579" y2="319.7249">
			<stop  offset="0" style="stop-color:#F9BABA"/>
			<stop  offset="1" style="stop-color:#F5928F"/>
		</linearGradient>
		<path class="st25" d="M198.6,316.1l3.7,3.2c0.7,0.6,0.8,1.5,0.4,2.3c-0.4,0.7-1,1.4-2,2c-0.6,0.3-1.4,0.3-2-0.2l-4.2-3.2
			c-1-0.8-1-2.3,0-3l1.8-1.3C197,315.5,198,315.6,198.6,316.1z"/>
		<linearGradient id="SVGID_15_" gradientUnits="userSpaceOnUse" x1="84.0982" y1="316.0619" x2="145.6618" y2="316.0619">
			<stop  offset="0" style="stop-color:#201B59"/>
			<stop  offset="1" style="stop-color:#2D2D84"/>
		</linearGradient>
		<path class="st26" d="M124.9,283.7c0,0-7.2,24.4-11.8,35.2c0,0-8.1,1.2-13.1,4.2s-15.8,19.2-15.8,19.2s2.8,5.4,6.2,6.2l30.8-21.3
			l24.6-28.6l-1.2-13.2L124.9,283.7z"/>
		<linearGradient id="SVGID_16_" gradientUnits="userSpaceOnUse" x1="123.2107" y1="301.4042" x2="198.9133" y2="301.4042">
			<stop  offset="0" style="stop-color:#201B59"/>
			<stop  offset="1" style="stop-color:#2D2D84"/>
		</linearGradient>
		<path class="st27" d="M125.3,281.7l-2.1,6.7c0,0,1.9,17.5,24,14.6c22.1-3,24.9-6.6,24.9-6.6s-1.9,11.2,22.3,24.7
			c0,0,3.7-2.8,4.5-5.9l-17-27.9c-2.4-3.7-4.5-4.6-8.9-4c-9.5,1.5-27.3,3.4-30,3L125.3,281.7z"/>
		<linearGradient id="SVGID_17_" gradientUnits="userSpaceOnUse" x1="149.0876" y1="241.8594" x2="98.9722" y2="321.7307">
			<stop  offset="0" style="stop-color:#5560AB"/>
			<stop  offset="1" style="stop-color:#4C57A6"/>
		</linearGradient>
		<path class="st28" d="M142.6,231.9c-6.4,0.3-16.6,3.4-23.2,9.5c2,2.2,5.1,5.9,7.5,9.5c2.1-1.9,5.1-3.6,9.2-4.6
			c-3.6,13.5-7.9,26.4-13.1,38.4c-0.3,0.8,0,1.6,0.8,1.9c4,1.4,16,4.8,25.5-0.6l21.2-30.3c2.3-3.3,3.8-7,4.4-10.9l0.8-5.5
			C175.7,239.2,156.6,231.2,142.6,231.9z"/>
		<linearGradient id="SVGID_18_" gradientUnits="userSpaceOnUse" x1="129.2164" y1="273.2875" x2="88.811" y2="201.8734">
			<stop  offset="0" style="stop-color:#F9BABA"/>
			<stop  offset="1" style="stop-color:#F5928F"/>
		</linearGradient>
		<path class="st29" d="M131,277.8c-0.9-2-4.1-3.9-5.6-4.7c-1.3-2.7-6.5-14.8,1.4-22.2c-2.3-3.6-5.4-7.2-7.5-9.5
			c-7.6,7-10.4,18,2.9,33.4c-0.7,3.8,1.6,8.2,2.9,8.8C125.8,283.8,132.3,280.5,131,277.8z"/>
		<linearGradient id="SVGID_19_" gradientUnits="userSpaceOnUse" x1="154.7589" y1="242.7252" x2="158.9874" y2="230.6662">
			<stop  offset="0" style="stop-color:#F9BABA"/>
			<stop  offset="1" style="stop-color:#F5928F"/>
		</linearGradient>
		<path class="st30" d="M156.9,223.9l-5.5,10.8c-0.3,0.7-0.2,1.5,0.3,2c1.3,1.5,4.5,3.9,10,2.2c0.6-0.2,1-0.7,1.1-1.4l1.4-9.8
			L156.9,223.9z"/>
		<g>
			<linearGradient id="SVGID_20_" gradientUnits="userSpaceOnUse" x1="166.8017" y1="217.8644" x2="148.247" y2="232.0615">
				<stop  offset="0" style="stop-color:#F9BABA"/>
				<stop  offset="1" style="stop-color:#F5928F"/>
			</linearGradient>
			<path class="st31" d="M166.1,211.3c0,0,3.2,7.5,3.5,11.4c0.2,3.9,1.1,6.5-3.5,7.2c-4.5,0.8-8.3-1.5-10.4-5.4c0,0-3.2-6-2.5-8.5
				C153.9,213.6,166.1,211.3,166.1,211.3z"/>
			<linearGradient id="SVGID_21_" gradientUnits="userSpaceOnUse" x1="153.74" y1="206.6234" x2="171.0207" y2="228.8722">
				<stop  offset="0" style="stop-color:#201B59"/>
				<stop  offset="1" style="stop-color:#2D2D84"/>
			</linearGradient>
			<path class="st32" d="M157.3,221.7l0.3-0.1c0.3-0.1,0.5-0.5,0.3-0.9c-0.6-1.2-1.9-4.1-0.3-4.7c2.1-0.8,10.3-2.5,12-5.4
				c1.7-2.8,0.2-6.4-2.1-7.4c-0.2-0.1-0.3,0-0.4,0.1l-0.2,0.4c-0.1,0.2-0.5,0.2-0.6-0.1l0,0c-0.1-0.3-0.4-0.3-0.6-0.1
				c-0.5,0.9-2,2.3-5.9,3c-5.6,1-9.3,3.3-9.4,7.1c0,0.2-0.3,0.4-0.5,0.3c-0.4-0.3-1.1-0.4-2,0.4c-1.5,1.3-0.9,4.6,2.5,7.4
				c0.2,0.1,0.2,0.4,0,0.5c-0.6,0.4-1.5,1.3,0.8,2.6c2.4,1.3,4.3,1.2,5,1.1c0.2,0,0.3-0.2,0.2-0.4l-0.7-3.4c0-0.2,0.1-0.4,0.3-0.4
				H157.3z"/>
			<linearGradient id="SVGID_22_" gradientUnits="userSpaceOnUse" x1="164.5002" y1="214.8565" x2="145.9455" y2="229.0537">
				<stop  offset="0" style="stop-color:#F9BABA"/>
				<stop  offset="1" style="stop-color:#F5928F"/>
			</linearGradient>
			<path class="st33" d="M157.4,222.5c0,0-1.2-4.8-3.4-3.4c-2.1,1.3,1.1,5.3,2.8,5.5L157.4,222.5z"/>
		</g>
	</g>
</g>
</svg>
